<?xml version="1.0" encoding="utf-8"?>
<!-- Generator: Adobe Illustrator 27.5.0, SVG Export Plug-In . SVG Version: 6.00 Build 0)  -->
<svg version="1.1" id="Layer_1" xmlns="http://www.w3.org/2000/svg" xmlns:xlink="http://www.w3.org/1999/xlink" x="0px" y="0px"
	 viewBox="0 0 580.5 788" style="enable-background:new 0 0 580.5 788;" xml:space="preserve">
<path d="M580.5,415.7c-0.4-0.2-1.2,0.4-1.2-0.4c0-0.7,0.7-0.6,1.2-0.6V415.7z"/>
<path d="M528.3,252c1.7,1.7,3.7,2.2,5.9,2c3.1-0.3,6.1,0.5,9.1,1.3c1,0.3,1.8,0.6,2.9,0.6c1.3-0.1,2.5,1,3.6,1.7
	c0.4,0.2,0.2,0.9-0.1,1.2c-1.9,1.6-1.2,3.6-0.7,5.4s0.8,3.6,1.5,5.4c0.2,0.4,0.2,0.9,0,1.3c-0.9,2.1-1.5,4.4-2.8,6.4
	c-1.4,2.2-2.6,4.7-4.3,6.7c-0.9,1.1-2.1,1.9-3.2,2.6c-1,0.6-2.2,1.2-3.3,0.1c-0.4-0.4-0.8-0.1-1.1,0.1c-2.2,1.8-4.7,3.2-7.2,4.6
	c-0.5,0.3-0.8,0.7-1,1.3c-0.4,1.5-1.4,2.6-2.9,3.1c-0.9,0.3-1.6,0.9-2.3,1.4c-4,3.1-8.6,4.5-13.5,4.7c-4.6,0.2-9.2,0.4-13.8,0.7
	c-3.6,0.3-7-0.7-10.2-2.2c-0.9-0.4-1.7-0.5-2.6,0c-1.8,0.9-3.5,1.9-5,3.2c-0.3,0.2-0.6,0.5-0.8,0.9c-0.7,2.1-2.4,3.5-3.8,4.9
	c-2,2-4.2,3.9-7.2,4.4c-1.8,0.3-3.5,1.4-5.4,1.1c-1.5-0.3-3-0.7-4.5-1c-3.9-0.8-7.1-3-10.2-5.2c-2-1.4-3.8-2.9-5.6-4.5
	c-0.5-0.4-1-0.7-1.7-0.8c-2.7-0.3-4.6-1.7-6-3.9c-0.6-0.9-0.9-2-1.1-3c-0.7-2.7-0.7-5.4,0-8.1c0.8-2.7,2.1-5.1,3.8-7.4
	c-1.3-0.3-1.7-0.3-2.1,0.7c-0.4,0.9-1,1.4-1.6,2.1c-1.8,2.1-3.6,4.2-5,6.5c-1.6,2.6-3,5.4-3.3,8.5c0,0.5-0.2,0.9-0.3,1.3
	c-0.4,1.5-1,2.9-1.3,4.4c-0.2,1.3-0.8,2.6-1.5,3.8c-1.2,1.9-1.9,4.1-3,6.1c-2.3,4.1-4.7,8.2-7,12.3c-0.2,0.4-0.6,0.8-1,1.1
	c-0.7,0.6-1.4,1.1-1.5,2.2c-0.1,0.7-0.9,1-1.2,1.5c-0.8,1.3-1.5,2.7-2.8,3.6c-0.2,0.1-0.5,0.3-0.5,0.5c0.1,1.8-1.5,3.2-0.9,5.1
	c0.2,0.7,0,1.6-0.1,2.4c0,0.5-0.1,1,0,1.4c0.6,1.9,0.4,3.8,0.4,5.8c0,0.6,0.1,1.3,0.4,1.8c0.9,1.5,1.2,3.4,2.3,4.9
	c0.5,0.6,0.9,1.4,0.6,2.2c-0.1,0.4,0.1,0.8,0.2,1.1c0.2,0.5,0.4,1.1,0.3,1.7c-0.2,2.1,0.5,4.1,0.5,6.2c0,1.8,0.7,3.5,1.4,5.2
	c0.6,1.6,1.5,3.1,2,4.7c0.3,0.8,1.4,0.9,1.4,1.8c0,0.7-0.5,1.4-0.2,2.1c0.5,1.4,0.4,2.8,0.3,4.2c-0.1,1.7,0.2,3.4,0.5,5.1
	c0.1,0.6,0.2,1.2,0.2,1.9c-0.1,2.1,0.3,4.2,0.9,6.2c0.4,1.4,0.4,2.9,0.7,4.4c0.6,3,1.2,6.1,1.3,9.2c0.1,1.9,0.6,3.8,0.7,5.7
	c0.1,1.1,0.7,2.2,0.9,3.4c0.7,4,2,7.8,3.2,11.6c1.1,3.4,1.1,6.8,0.6,10.3c-0.3,2-0.4,3.9,0,5.9c0.5,2.1,0.2,4.2,0.4,6.3
	c0.1,1.8-0.6,3.4-1.3,5.1c-0.5,1.1-0.9,2.2-1.5,3.3c-0.6,1.1-0.1,2.4-0.6,3.5c-0.1,0.2,0,0.5-0.1,0.7c-1,2.3-1.1,4.9-2.2,7.1
	c-0.1,0.3-0.4,0.6-0.4,1c0.1,2-1.1,3.5-1.7,5.2c-0.5,1.5-1.3,3-1.8,4.6c-0.6,2.1-1.9,3.9-2.9,5.8c-1.1,2.2-2.3,4.3-3.3,6.5
	c-0.7,1.4-1.7,2.7-2.3,4.2c-0.7,1.5-1.4,3-2.3,4.4c-1.1,1.7-2.1,3.6-3.5,5.2c-1.2,1.4-2.1,3.1-3.1,4.7c-1.7,2.7-3.5,5.3-5.5,7.8
	c-1.2,1.5-2.4,3.1-3.4,4.9c-1.1,1.9-2.5,3.6-4.5,4.7c-0.6,0.3-1.3,0.7-1.6,1.2c-0.9,1.6-2.8,2.1-3.6,3.7c-0.2,0.3-0.6,0.5-1,0.6
	c-0.8,0.1-0.6,0.9-1,1.3c-0.1,0.1-0.1,0.5,0.2,0.5c1,0.3,0.7,0.9,0.2,1.4c-0.8,0.9-1.5,2-2.9,2.2c-0.1,0-0.3,0.1-0.3,0.1
	c-0.2,1.8-2.8,2.1-2.5,4.1c0,0.3-0.2,0.6-0.5,0.6c-1-0.1-1,0.7-1.3,1.2c-1.4,2.4-2.8,4.8-4.4,7.1c-1,1.4-1.5,2.8-1.4,4.6
	c0.1,3.8-0.4,7.6-0.7,11.4c-0.2,3.1-0.5,6.1-0.5,9.2c0,1.4-0.6,2.7-0.5,4.2c0.2,2.2-0.8,4.5-0.2,6.7c0.1,0.7-0.3,1.3-0.3,2
	c0,2.9,0,5.8,0,8.7c0,3.6-0.5,7.2-0.4,10.7c0.2,4.6,0.3,9.2,0.4,13.8c0.1,3.2,0.1,6.3,0,9.5c0,4.4,0.3,8.9,1.1,13.2
	c0.3,1.7,0.2,3.5,0.3,5.3c0,2.8,1.1,5.4,1.5,8.2c0.1,0.7,0,1.2-0.3,1.9c-0.5,1.3-1.2,2.3-2.2,3.2c-0.7,0.7-1.1,1.7-2.2,2.1
	c-0.2,0-0.3,0.3-0.4,0.5c-1.7,3.5-4,6.6-6.5,9.5c-1.2,1.3-2.2,2.7-3.5,3.9c-0.2,0.2-0.4,0.6-0.7,0.7c-1.6,0.7-2.6,1.9-3.5,3.3
	c-0.6,0.9-1.5,1.6-2.5,2.2c-0.7,0.4-1.4,0.8-1.9,1.4c-2,2.4-4.8,3.8-7.3,5.5c-2.5,1.8-5.3,3.1-8,4.5c-2.1,1.1-4.4,1.9-6.5,3
	c-1.2,0.5-2.5,0.7-3.7,1.1c-5.7,1.9-11.5,2.8-17.4,3.2c-2.5,0.2-5,0.6-7.4,0.8c-3.4,0.2-6.8,0.4-10.2,0.5
	c-6.6,0.1-13.2-0.2-19.8-0.6c-2-0.1-3.9-0.5-5.9-0.8c-3.8-0.4-7.6-0.7-11.2-1.7c-0.3-0.1-0.6-0.1-0.8-0.2c-3.4-1.4-6.9-2.2-10.2-3.7
	c-2.4-1-5-1.8-7.5-2.8c-6.5-2.6-12.7-5.8-18.7-9.6c-3.3-2.1-6.8-4-9.6-6.7c-1.9-1.8-4.2-2.8-6.3-4.2c-2-1.4-3.6-3.2-5-5
	c-1.6-2-3.1-4.2-4.3-6.5c-0.3-0.6-0.6-1.2-0.7-1.9c-0.1-0.9-0.6-1.7-0.9-2.5c-2.1-4.7-3.5-9.7-4.9-14.7c-0.2-0.8-0.1-1.6,0.2-2.3
	c1.9-3.9,2.7-8.2,4.1-12.2c1-2.8,1.7-5.8,3-8.5c0.4-0.8,0.3-1.7,0.6-2.5c1.2-3.2,2.5-6.5,3.6-9.8c2.1-6.2,4.1-12.4,6.1-18.6
	c0.9-2.8,1.6-5.7,2.8-8.4c0.8-2,1.1-4.3,1.5-6.4c0.1-0.3,0-0.6,0.1-0.8c0.9-1.3,0.8-2.8,1-4.3c0.3-3.2,1-6.4,1.6-9.5
	c0.3-1.5,0.2-3.2,0.4-4.8c0.2-3.2-0.1-6.5-0.7-9.7c-0.4-2-1.7-3.6-2.4-5.4c-0.6-1.6-1.5-3.1-2.1-4.6c-0.8-1.7-1.3-3.5-1.7-5.3
	c-0.2-1-0.4-2-1.2-2.8c-0.3-0.3-0.4-0.7-0.5-1.1c-0.7-2.4-2.1-4.4-3.4-6.5c-2.7-4-5.4-7.9-8.3-11.7c-0.4-0.5-0.6-1.3-1.5-0.8
	c-0.5,0.2-0.4-0.4-0.3-0.5c0.5-0.6,0.1-1.1-0.3-1.6c-0.8-0.9-1.3-2.1-2.7-2.4c-0.2,0-0.4-0.3-0.4-0.5c0.4-1.2-0.6-1.8-1.1-2.5
	c-1.8-2.3-3.7-4.5-5.5-6.7c-0.4-0.6-0.9-0.9-1.5-0.2c-1.7,2.1-4,3.5-5.7,5.6c-1.8,2.1-3.2,4.5-4.9,6.8c-0.3,0.5-0.7,0.9-1,1.4
	c-0.5,0.7-0.9,1.4-1.1,2.3c-0.3,1.4-1,2.7-1.8,3.9c-0.5,0.7-0.9,1.5-1.2,2.3c-0.5,1.4-1.4,2.6-2.3,3.8c-2.9,3.8-5.8,7.5-8,11.8
	c-0.9,1.8-1.9,3.5-2.8,5.2c-0.4,0.9-1,1.8-1.8,2.4c-1.1,0.9-1.6,2.4-2,3.7c-0.8,2.3-1.8,4.5-3.1,6.6c-0.2,0.3-0.4,0.7-0.8,0.9
	c-0.6,0.3-0.7,0.8-0.8,1.4c-0.2,1.5-2.9,4-4.4,4c-1.1,0-2.2-0.3-3.2-0.9c-1-0.6-1.2-1.7-1-2.8c0.1-0.3,0-0.6-0.2-0.8
	c-0.8-1.1-0.7-2.3-0.6-3.6c0.1-1.2,0.1-2.3-0.1-3.5c-0.2-1.4-0.1-2.8,0-4.2c0-0.8,0.1-1.5-0.1-2.2c-0.5-1.6-0.4-3.3,0-4.9
	c1-4,1-8,0.8-12c-0.1-2.8,0.2-5.4,0.9-8.1c1-3.9,2.6-7.5,4.3-11.1c0.7-1.6,1.4-3.2,2.2-4.8c2.8-5.5,7-9.4,12.4-12.2
	c2.4-1.2,4.7-2.7,7.1-4.1c2.2-1.3,4.3-2.7,6.6-3.8c1.7-0.8,3.3-1.8,5.1-2.7c-2.4-1.3-3.6-3.6-4.4-5.9c-1.7-5-3.7-9.9-6.1-14.6
	c-3.3-6.6-5.8-13.6-8.3-20.6c-0.3-0.8-0.6-1.6-1.1-2.3c-0.8-1.2-1.6-2.5-2.1-3.9c-1.3-3.4-3-6.5-4.6-9.7c-1.7-3.4-3.1-7-4.5-10.5
	c-0.4-1.1-1-2.2-1.5-3.2c-1.2-2.6-1.7-5.3-1.8-8.1c-0.1-1.9,0-3.8,0-5.6c0.1-2.9-0.3-5.8-1.2-8.6c-0.5-1.6-1.1-3.1-1.5-4.7
	c-0.7-2.7-0.6-5.4,0.1-8.1c0.5-1.8,0.9-3.5,1.5-5.2c1.1-2.9,1.8-5.8,2.6-8.8c0.3-1.1,0.7-2.2,1.3-3.1c0.5-0.8,0.9-1.6,1.2-2.5
	c0.8-2.6,2-5.1,3.2-7.5c2.2-4.3,3.6-8.9,5.3-13.3c0-0.1,0.1-0.2,0.1-0.3c1.9-3.8,2.9-7.9,4.5-11.8c1.5-3.9,3.1-7.8,4-11.9
	c0.5-2.1,1.1-4.2,1.9-6.2c0.3-0.8,0.6-1.5-0.4-2.2c-0.6-0.4-0.4-1.3-0.3-1.9c0.3-1.3,0.1-2.4-0.1-3.7c-0.6-3.7-0.6-7.3,0-11
	c0.6-4.1,1.5-8.1,2.4-12.2c0.7-3.4,1.9-6.6,3.7-9.5c1.9-3.2,3.7-6.4,6-9.3c2.3-2.9,4.5-5.7,7.3-8.1c1.1-0.9,1.9-2,2.5-3.2
	c0.8-1.6,2.1-2.6,3.6-3.7c1.6-1.2,3.3-2.3,4.9-3.5c2.1-1.5,4.4-2.6,6.6-3.9c1.8-1,3.5-2.1,5.2-3.2c2.1-1.2,4.1-2.7,6.2-3.9
	c3.5-2.1,6.9-4.3,10.5-6c1.6-0.8,3.1-1.9,4.6-2.9c2.3-1.5,4.7-2.7,7.1-4c4.6-2.6,9.6-4.6,14-7.5c2.6-1.7,5.4-2.9,7.8-4.8
	c2.2-1.7,4.7-2.7,6.8-4.5c1.2-1,2.8-1.8,4.1-2.7c2.3-1.6,4.6-3.3,6.5-5.5c0.6-0.7,1.4-1.1,2.1-1.6c0.7-0.5,1.3-1.1,1.9-1.7
	c0.8-0.8,1.1-1.5,0.9-2.7c-0.3-1.7,0.7-3.1,1.6-4.4c1.9-2.9,3.9-5.6,5.7-8.5c1.7-2.8,3.6-5.5,5.8-7.9c0.8-0.9,1.7-1.8,2.5-2.7
	c0.5-0.5,1.2-0.9,1.2-1.8c0-0.3,0.3-0.7,0.5-0.8c1.9-1,2.8-2.9,4-4.5c0.9-1.2,2.1-2.2,2.6-3.6c0.9-2.4,2.8-4.1,3.9-6.3
	c1.3-2.7,3.5-4.5,6.4-5.6c4.1-1.4,8.1-3.3,12.4-4.3c3.6-0.9,7.2-0.9,10.8,0.1c1.8,0.5,3.4,1.3,4.8,2.5c1.3,1.1,2.7,2.1,4.1,2.9
	c0.9,0.5,1,1.6,1.4,2.5c0.4,0.9,0.6,1.9,1.6,2.5c0.3,0.2,0.5,0.5,0.5,0.9c0,1.7,1.2,2.6,2.1,3.6c0.6-0.1,0.8-0.6,1-0.9
	c1.4-2.1,3.1-4,4.5-6.2c0.5-0.9,1.4-2,2.2-2.5c3.5-2.1,7-4.5,11.4-4.2c3.2,0.2,6.5,0.4,9.7,0.9c3.8,0.7,6.9,2.6,9.5,5.5
	c1.6,1.9,2.7,4.1,3.9,6.1c0.5,0.9,0.2,2.2,0.4,3.3c0.8,4.4,0.7,8.8,0.8,13.3c0,2.8-0.3,5.6-0.5,8.4c0,0.6-0.1,1.1-0.1,1.7
	c-0.2,3.6-0.7,7.1-1.4,10.6c-0.3,1.6-0.5,3.2-0.7,4.9c-0.2,2.1-0.6,4.1-1.5,5.9c-0.5,1.1-0.8,2.3-0.9,3.6c-0.1,1.6-0.6,3.1-0.9,4.7
	c-0.4,2.4-1.6,4.5-1.5,6.9c-0.8,1.1-1.1,2.3-1.6,3.6c-0.9,2.4-2.8,4.1-3.6,6.6c-0.1,0.4-0.8,0.9-1.1,1.4c-1.1,1.6-1.5,3.4-2.2,5.1
	c-1.3,3.4-3.2,6.4-5.5,9.2c-0.6,0.8-1.2,1.4-0.7,2.7c0.6,1.4,0.1,2.9-0.7,4.2c-1.8,3.2-3.3,6.6-4.6,10.1c-0.2,0.6-0.5,1.2-0.9,1.6
	c-0.8,0.8-0.5,1.9-1,2.8c0,0,0,0.1,0,0.2c1.3,1.5,0.1,2.9-0.3,4.4c-0.1,0.3,0.2,0.5-0.1,0.9c-1-0.4-1.7,0.6-2.6,0.9
	c-0.6,0.2-0.9,1.4-0.7,2.2c0.1,0.4,0.2,0.7-0.2,0.9c-1,0.3-1.2,1.1-1.6,1.9c-0.9,2.1-1.9,4.1-3,6.1c-0.6,1-0.9,2.2-1.3,3.3
	c-1.6,3.6-2,7.5-3,11.3c-0.4,1.6-1,3.2-1.1,5c0,0.6-0.2,1.1,0.2,1.6c0.3,0.4,0.4,0.8,0.2,1.3c-0.1,0.3-0.1,0.7,0.1,1
	c0.6,1.1,0.9,2.2,0.5,3.4c-0.1,0.2,0,0.5,0.1,0.6c1.2,3,1.5,6.2,2.5,9.2c0.7,2.1,1.3,4.2,1.5,6.4c0.4,3.1,1.4,6.2,1.8,9.3
	c0.4,2.6,1.2,5.1,1.5,7.7c0.3,2.8,1.2,5.6,2.3,8.3c0.4,1,0.5,1.9,0.4,3.1c-0.2,1.8,0,3.6,1.8,4.9c0.7,0.5,1.1,1.3,1.4,2
	c0.7,1.4,1.8,2.6,2.3,4.1c0.1,0.4,0.4,0.8,0.7,1.2c0.7,0.9,1.7,1.6,2,2.8c0.6-0.4,0.5-0.9,0.5-1.3c0.1-4.1,0.6-8.3,0.9-12.4
	c0.1-1.3,0.6-2.6,0.7-4c0.6-4.6,2-9.1,3.7-13.5c1.1-2.8,2.1-5.5,3.2-8.2c2.9-7,7.8-11.7,15.6-13c1.9-0.3,3.8-0.3,5.7-1
	c0.3-0.1,0.8-0.1,1.2,0c1.8,0.2,3.6,0.5,5.4,0.7c0.6,0.1,1.2,0.3,1.7,0.6c0.2,0.2,0.4,0.4,0.7,0.4c1.4-0.3,2.5,0.5,3.7,0.9
	c1.1,0.4,2.3,0.6,3.4,1.1c0.5,0.2,0.9-0.1,1-0.6c0.4-1,0.7-1.9,1-2.9c0.8-3,2.5-5.4,4.2-7.9c0.7-1,1.6-1.9,1.9-3.2
	c0-0.2,0.1-0.3,0.2-0.5c2.5-2.5,4.1-5.7,6.5-8.3c1.7-1.9,2.6-4.3,3.5-6.6c1.7-4.5,3.8-8.6,6.8-12.3c2.9-3.5,6.1-6.8,9.7-9.5
	c0.5-0.4,1-0.9,1.3-1.5c0.8-1.7,2.2-2.8,3.9-3.4c2.5-1,4.6-2.7,7-3.9c1-0.5,1.9-1,2.9-1.5c0.6-0.2,1.1-0.6,1.6-0.9
	c0.5-0.4,0.5-0.7-0.1-1c-0.7-0.4-1.4-0.8-2.2-0.7c-1.8,0.1-3.5,0.6-4.8,1.9c-1,1.1-2.3,2-3.3,3.2c-0.5,0.7-1.5,0.9-2.3,1.4
	c-1.6,1-3,2.2-4.9,2.7c-0.5,0.1-0.9,0.5-1.3,0.8c-1.2,0.8-2.3,1.5-3.9,1.6c-1,0-1.9,0.6-3,0.6c-1.3,0.1-2.5,0.2-3.7-0.2
	c-1.6-0.5-3.1-0.5-4.7-0.2c-2.6,0.4-5.2,1.3-7.8,1.9c-0.3,0.1-0.5,0.3-0.8,0.2c-1.7-0.3-2.8,0.9-4,1.8c-0.1,0.1-0.2,0.3-0.4,0.3
	c-2.6,0.9-4.7,3-7.5,3.4c-0.5,0.1-1,0.3-1.5,0.4c-1.5,0.4-3,0.5-4.5-0.1c-1.6-0.6-3.2-1.1-4.8-1.8c-4.5-2.1-7.4-5.3-8-10.4
	c-0.5-3.8,0.3-7.5,0.2-11.2c1-2.3,0.6-4.8,0.7-7.2c0.1-2.3,1.4-3.9,2.7-5.5c1.1-1.3,2.3-2.5,3.5-3.7c1.2-1.2,1.3-1.5,0.3-2.9
	c-2.1-2.9-2.8-6.1-2.5-9.6c0.2-2.7,0.8-5.1,1.8-7.6c1.2-3,3.1-5.4,5.1-7.8c0.2-0.3,0.5-0.5,0.8-0.7c1.9-1.3,3.9-2.6,5.8-3.8
	c0.7-0.4,1.4-0.7,2.2-1c0.5-0.2,0.8-0.6,0.5-1.2c-1.2-2.6-0.8-5.2-0.3-7.9c0.1-0.7,0.3-1.5,0.3-2.2c-0.2-3.8,0.9-7.3,1.8-10.9
	c0.5-1.9,1.6-3.7,3.2-5.1c1.9-1.6,3.5-3.4,5.5-4.8c2.2-1.6,4.6-2.5,7.3-2.4c3.4,0.1,6.7-0.3,10-0.6c3.3-0.4,6.6-0.2,9.4,2
	c0.6,0.4,1.2,0.9,1.9,1.1c0.5,0.1,0.6,0.5,0.8,0.8c0.6,0.8,1.1,1.7,1.9,2.4c0.6,0.5,0.9,1.1,0.9,1.9c0.2,2.2,0.1,4.4-0.3,6.6
	c-0.3,1.6,0,3.1,1.6,4.3c2.2,1.7,3.4,4.2,3.6,7.1c0.1,1.5,0.6,2.8,0.7,4.2c0.1,0,0.3,0,0.4-0.1c0.1-1.5,0.4-3.1,0.4-4.6
	c0-1.7,0.1-3.3,0.4-4.9c0.5-2.9,0.2-5.8-0.6-8.6c-0.7-2.3-0.6-4.7-1-7.1c-0.1-0.5-0.2-1-0.3-1.5c-0.1-0.5-0.4-0.8-0.9-1
	c-2-0.5-2.6-2.1-2.4-3.8c0.3-2.2-0.5-4.3-0.3-6.4c0.2-2.8,0.8-5.5,2.8-7.6c0.8-0.8,1.4-1.9,2.1-2.6c1.5-1.4,2.5-3.4,4.9-3.7
	c2-1.5,4.3-1.1,6.5-1.1c1.7,0,3.3,0.3,4.9,0.5c1.1,0.1,2.2,0.4,3.4,0.4c0.1,0,0.3,0,0.3,0c1.5,1,3.4,1.2,5,2.1c0.6,0.4,1.3,0.8,2,1
	c1.5,0.6,2.5,1.7,3.5,2.9c0.5,0.6,1,1.2,1.7,1.6c0.4,0.2,0.7,0.4,0.9,0.8c0.7,1.3,2.1,1.8,3,3c0,0,0.1,0.1,0.1,0.1
	c1.5,0.1,2.5,1.3,3.8,1.9c1.3,0.7,2.8,0.5,4.2,0.7c2.4,0.4,4.6,0.1,6.9-0.5c0.9-0.2,1.9-0.3,2.9-0.4c2.4-0.1,4.8-0.8,7.3-0.8
	c4.5,0,8.9,0.8,12.9,3.1c1.5,0.9,2.6,1.9,3.8,3.1c1.1,1.1,2.1,2.2,2.1,3.9c0,0.7,0.3,1.3,1.2,1.3c0.6,0,1.3,0.3,1.3,1.3
	c0,0.4,0.3,0.6,0.5,0.9c0.2,0.3,0.6,0.6,0.6,1c0.2,2.2,1.4,4.2,1.1,6.4c-0.1,0.6-0.1,1.2-0.5,1.6c-1.8,2.2-2.7,4.9-4.1,7.3
	c-2.2,3.7-4,7.6-6.1,11.4c-1.2,2.1-2.3,4.3-3.9,6.2c-0.1,0.1-0.2,0.3-0.3,0.4c-0.1,0.4-0.7,0.7-0.2,1.2c0.5,0.4,0.9,0.1,1.2-0.2
	c0.9-1,1.9-2,2.8-3c1.4-1.6,2.7-3.3,4-4.9c1.3-1.5,2.2-3.2,2.8-5c1.3-3.4,3.7-5.8,6.7-7.7c0.4-0.2,0.8-0.4,1.2-0.7
	c0.8-0.6,2.3-1.1,3.2-1.4c2.2-0.5,3.8,0.7,5.3,2c0.4,0.3,0.7,0.8,1,1.1c0.9,0.9,1.8,1.7,2.3,2.9c0.1,0.3,0.3,0.5,0.5,0.7
	c1.9,1.8,2.9,4.1,3.9,6.4c0.6,1.4,1.3,2.9,1.3,4.5c0,1.2,0.7,2.2,0.8,3.4c0.1,0.5,0.9,0.9,1,1.5c0.5,1.9,2.1,2.4,3.7,3.1
	c3.6,1.7,5.8,4.6,6.4,8.5c0.5,2.9,1.1,5.8,0.6,8.8c-0.2,1,0.2,2,0.2,3c0,2.5-0.5,4.8-1.8,7c-0.6,1.1-0.9,2.1-1.1,3.4
	c-0.5,3.3-1.2,6.6-3,9.5c-0.3,0.5-0.6,1.1-1.1,1.5c-1,0.7-1.2,2.1-2.3,2.9c-1.7,1.2-3.1,2.8-5.1,3.6c-3.5,1.3-6.9,2.9-10.7,3.4
	C534.1,251.6,531.3,252.1,528.3,252L528.3,252z M293,505.2c-0.5-0.9-0.5-1.7,0.4-2.4c0.9-0.7,1.2-1.8,1.2-2.9c0-1.6,0.5-3.1,1.2-4.6
	c0.2-0.4,0.4-0.8,0.8-1.1c1.4-1,2.3-2.4,3.2-3.7c1.6-2.3,2.5-4.9,3.7-7.3c1.4-3,2.6-6,3.4-9.3c0.6-2.5,0.8-5.2,2-7.5
	c0.1-0.2,0.2-0.5,0.1-0.7c-0.7-1.5,0.3-2.6,1-3.8c0.5-0.8,0.8-1.6,1.1-2.5c1.2-2.7,2-5.6,3.3-8.2c0.4-0.8,0.8-1.5,1.6-2
	c1.1-0.7,2-1.7,2.2-3.1c0.1-0.4,0.3-0.7,0.6-1c3.5-4,7.2-7.8,11.2-11.2c4.8-4,9.5-8.1,15.1-11c1.5-0.8,2.9-1.9,4.4-2.5
	c1.7-0.7,3.2-1.7,4.6-2.7c1.4-1,1.9-2.4,2.2-3.9c0.5-2.4,0-4.8-0.1-7.3c-0.2-2.3-0.9-4.6-0.6-6.9c0.1-0.7,0-1.5-0.3-2.2
	c-0.9-1.5-1.3-3.1-1.4-4.8c0-1-0.8-1.3-1.7-0.8c-0.2,0.1-0.4,0.3-0.6,0.4c-2.3,1.6-4.6,3.3-7,4.9c-7.1,4.9-14.3,9.7-21.4,14.6
	c-1.6,1.1-3.2,1.6-5,1.8c-1.9,0.2-3.7,0.6-5.5,1c-4.6,1.1-9.3,2.2-13.9,3.4c-3.4,0.8-6.9,1.2-10.4,2c-5.9,1.4-11.8,3-17.4,5.4
	c-0.7,0.3-1.5,0.6-2.2,1c-0.5,0.2-0.7,0.6-0.6,1.1c0.1,0.5,0.3,1,0.9,1.2c0.7,0.2,1.4,0.2,2,0.1c0.5-0.1,0.9,0,1.3,0
	c3,0.4,5.7,1.4,8.5,2.3c2.4,0.8,4.7,1.8,7.1,2.4c2,0.5,4.1,0.8,6.2,1c3.2,0.4,6.4,0.2,9.5,0.1c3-0.1,6-0.6,9-0.9
	c2.9-0.3,5.9-0.4,8.8-1c0.8-0.2,1.7-0.1,2.5,0.1c0.6,0.1,1.1,0.4,1.1,1.1c0,0.8-0.7,0.8-1.2,0.8c-1.5,0-2.3,0.9-2.7,2.2
	c-0.6,2.4-2.3,3.7-4.3,4.8c-0.5,0.3-1.1,0.5-1.8,0.3c-1.4-0.4-2.6,0-3.6,1c-1.3,1.1-2.7,2.1-3.6,3.6c-0.5,0.8-1.2,1.3-2,1.9
	c-1.9,1.5-3.8,2.9-5.5,4.6c-2.1,2.1-4.6,3.7-7.4,4.7c-2.6,0.9-5.1,2-7.6,2.9c-4.4,1.5-8.7,3.1-13.2,3.9c-3.6,0.6-7.3,0.6-10.8-0.4
	c-1.3-0.4-2.5-0.8-3.8-0.2c-0.6,0.3-1,0-1.2-0.6c-0.4-1.7-1.7-2.6-3.1-3.2c-3.3-1.4-6.6-2.8-10.1-3.6c-0.4-0.1-0.9-0.4-1.3-0.2
	c-1.4,0.6-2.7,0-4,0c-2.9-0.1-5.8,0-8.6,0.7c-4,1-8,1.9-11.2,4.7c-1.2,1.1-2.3,2.2-2.8,3.8c-0.1,0.4-0.3,0.6-0.5,0.8
	c-0.8,0.6-1.6,1.4-2.4,1.9c-4.6,3.2-9.1,6.7-13.8,9.8c-2.8,1.8-5.7,3.5-8.6,5.2c-4.6,2.7-9.4,5.1-14.1,7.6c-2.5,1.4-3.2,3.3-2,5.9
	c1.8,3.8,3.9,7.5,6.3,10.9c2.3,3.2,4.8,6.4,6.5,9.9c0.9,1.7,1.8,3.4,2.8,5.1c1.4,2.1,2.7,4.2,4.1,6.3c2.2,3.3,3.7,7,6.1,10.3
	c0.9,1.2,1.5,2.6,1.8,4c0.1,0.9,0.4,1.7,0.7,2.4c0.6,1.3,1,2.7,1.1,4.1c0.2,2.5,0.9,4.9,1.5,7.3c0.5,2.2,0.6,4.3,0.2,6.6
	c-0.6,3.6-1.1,7.2-1.4,10.8c-0.3,2.9-0.8,5.8-0.8,8.8c0,0.9-0.1,1.8-0.4,2.7c-1.2,3.7-2.5,7.3-3.9,10.9c-2.3,6.5-4.7,13.1-7.1,19.5
	c-1.2,3.3-2.1,6.8-3.7,10c-2.1,4.3-3.5,8.9-4.9,13.5c-0.9,3.2-1.9,6.3-3.9,9c-1.1,1.5-1.1,3-0.6,4.8c2.1,6.5,5.2,12.5,9.3,17.9
	c2.9,3.8,6,7.5,10.2,9.9c1.1,0.6,2.2,1.3,2.6,2.5c0.2,0.4,0.6,0.7,1,0.9c2.2,1.4,4.3,3,6.5,4.3c4.5,2.8,9.2,5.2,14.1,7.2
	c5.2,2.2,10.6,3.6,16.1,5.2c4.4,1.3,8.9,1.9,13.4,2.2c4.8,0.3,9.6,0.5,14.5,0.7c5.7,0.1,11.4,0.4,17.1,0.4c2.7,0,5.2-0.6,7.6-1.7
	c1.3-0.7,2.8-1,4.2-1.4c1.1-0.3,2.1-0.3,3.2-0.5c3.8-0.9,7.6-1.9,11.4-3c6.6-1.9,12.3-5.3,17.6-9.5c3.6-2.8,7-5.8,10-9.2
	c3.6-4,7.8-7.5,11.7-11.3c1.5-1.5,2.1-3,2-5c0-1.7,0.1-3.3,0.5-4.9c1.1-5.2,1.2-10.6,1.5-15.9c0.3-6.4,0-12.7-0.3-19.1
	c-0.1-1.6-0.1-3.2-0.4-4.8c-0.5-3.5-0.8-7.1-1.2-10.7c-0.5-4.1-1.2-8.2-2-12.2c-0.3-1.7-0.3-3.3,0-4.9c1.2-5.2,0.6-10.2-1.3-15
	c-1.7-4.3-3.6-8.5-5.8-12.6c-0.2-0.5-0.5-1,0-1.4c1.5-1,2.4-2.6,3.5-4c1.1-1.3,2.3-2.5,3.1-4c3.5-6.6,8.1-12,14.5-16
	c0.3-0.2,0.5-0.4,0.8-0.6c0.4-0.3,0.7-0.6,0.7-1.1c0-1.2,0.6-1.9,1.5-2.6c0.8-0.6,1.5-1.2,2.2-1.8c1.9-1.5,3.8-3,5.4-5
	c0.6-0.8,1.2-1.5,1.9-2.2c3-2.9,5.4-6.1,7.4-9.8c1.5-2.7,3.1-5.3,5.7-7.1c0.6-0.5,1.2-1,1.8-1.6c2.7-2.8,3.8-6.3,4.6-9.9
	c1.2-5,2.1-10,3.8-14.8c1.1-3.3,2.3-6.5,3.8-9.7c0.5-1,0.9-2,0.4-3.1c-0.2-0.5-0.1-1,0.2-1.5c0.6-0.9,0.9-1.8,1.3-2.8
	c0.5-1,1-2,1.8-2.8c1.2-1.2,2.1-2.6,2.5-4.4c0.6-3.2,0-6.3-0.2-9.5c-0.2-2.1-0.6-4.3-0.6-6.4c0-1.6-0.1-3.2-0.3-4.8
	c-0.4-2.8-0.3-5.5-0.6-8.3c-0.3-2.5,0.1-5-0.4-7.5c-0.1-0.4-0.1-0.7,0.1-1.1c0.7-1.1,0.6-2.4,0.4-3.6c-0.2-0.9-0.5-1.8-0.5-2.7
	c0.1-2.6-0.3-5.1-0.7-7.6c-0.6-3.9-1.2-7.8-1.8-11.8c-0.7-4.5-1.5-8.9-2-13.5c-0.2-1.7-0.4-3.4-1.1-5c-0.9-2.2-1.8-4.3-2.2-6.6
	c-0.4-2.2-2-4.1-1.6-6.5c0.1-0.5-0.3-1.1-0.4-1.6c-0.8-3-2.4-5.6-3.3-8.6c-0.9-2.6-2-5.2-2.7-7.9c-0.4-1.5-0.5-2.9-0.7-4.4
	c-0.4-2-0.7-3.9-1-5.9c-0.2-1.5,0-3-0.4-4.4c-1-3.9-0.6-7.7,0.3-11.5c0.2-0.8,0.1-1.3-0.6-1.8c-1.3-0.9-2.6-1.5-4.2-1.6
	c-2.4-0.1-4.6,0.7-6.8,1.3c-2,0.5-4.1,1.2-5.8,2.5c-3.5,2.5-6,5.9-7.4,10c-1.4,3.9-2.1,7.9-3.3,11.8c-0.1,0.3-0.2,0.7-0.1,1
	c0.3,0.9,0,1.8-0.1,2.7c-0.2,1.5-0.3,2.9-0.6,4.4c-0.4,2.1-0.3,4.2-0.6,6.3c-0.3,2.5-0.3,5-0.3,7.5c0,2.6,0.6,5.3,1,7.9
	c0.2,1.2,0.4,2.4-0.2,3.5c-0.1,0.2-0.2,0.5-0.1,0.8c0.5,3.5,1.4,7,2.7,10.2c2.1,5,4.8,9.7,8.4,13.8c1.2,1.4,2.4,2.8,3.1,4.6
	c0.5,1.3,1.6,2.7,3.2,2.7c2,0,3.7,0.7,5.4,1.2c0.5,0.2,1,0.5,1.5,0.8c0.6,0.5,0.6,1,0.4,1.7c-0.4,1-1.5,1.5-2.8,1.3
	c-1-0.2-2-0.5-3-0.7c-1.4-0.3-2.7-0.4-4.2-0.2c-2.8,0.3-5.7,0.5-8.1-1.6c-0.5-0.4-1.1-0.6-1.6-0.2c-0.5,0.4-0.6,1-0.5,1.7
	c0.3,1.3,1,2.4,1.6,3.5c0.3,0.4,0.5,0.9,0.5,1.4c0,0.9,0.4,1.8,0.7,2.6c0.5,1.4,1.2,2.6,1.5,4.1c0.6,3.4,0.8,6.9,2.9,9.8
	c0.1,0.1,0.1,0.3,0.1,0.5c0.8,2.5,1.5,5,2.3,7.5c0.3,1,0,1.3-0.9,1.1c-1.1-0.2-2.2-0.6-3.3-0.6c-1.2,0-1.8-0.6-2.1-1.6
	c-0.1-0.5-0.3-1-0.4-1.5c-0.7-2.6-1.5-5.1-2.2-7.7c-0.8-2.7-2.8-3.2-5-2.7c-0.8,0.2-1.5,0.4-2.3,0.5c-1.4,0.1-2.7,0.5-4,1
	c-1.4,0.5-2.6,1.4-4,1.9c-2.9,1.2-5.4,2.9-7.8,4.8c-0.9,0.7-1.6,1.7-2.6,2.1c-1.8,0.7-3.2,1.8-4.3,3.2c-1.5,1.9-3.5,3.5-3.7,6.2
	c0,0.2-0.3,0.5-0.5,0.7c-1.8,2.3-3.5,4.6-4.8,7.2c-2,4-4,8.1-5.9,12.1c-0.6,1.2-0.7,2.6-1.4,3.8c-2.7,4.6-5.1,9.5-8,14.1
	c-1.7,2.7-3.1,5.6-3.8,8.7c-0.4,1.5-0.8,2.9-2.1,4c-2.5,2.1-4.8,4.3-7.2,6.5c-0.4,0.4-0.8,0.7-1.4,0.5
	C295.2,503.4,294,504.2,293,505.2L293,505.2z M262.6,275c0.3-0.3,0.8-0.4,1.2-0.6c0.9-0.4,1.9-0.5,2.7-1c2-1.3,4.5-1.5,6.5-3
	c1.2,0.1,1.4-0.7,1.6-1.5c0.1-0.4,0.1-0.8,0.3-1.1c1.3-2.4,2.3-5.1,3.8-7.5c1-1.6,1.8-3.3,2.5-5c0.4-1.1,0.8-2.2,1.5-3.1
	c1.4-1.7,2.2-3.6,3-5.5c2.1-5.2,3.6-10.6,4.7-16.2c0.8-3.9,1.5-7.9,1.1-12c-0.1-1.9-0.4-3.8-1.7-5.4c-0.8-1-0.4-3,0.4-3.9
	c1.6-1.7,3.3-3.5,4.9-5.3c3-3.4,5.7-7,8.3-10.6c3.2-4.4,6.4-8.9,9.2-13.6c1-1.8,2-3.5,3.5-5c1-1.1,2-2.5,2.6-4c2-4.9,2.8-10,2-15.3
	c-0.6-4.2-1.9-8.1-4-11.7c-1.1-1.9-2.8-2.9-5-2.9c-2.3,0-4.5-0.1-6.8,0.3c-2.6,0.4-5,1.2-7.1,2.8c-4,2.9-7.5,6.3-10.2,10.4
	c-2.5,3.7-5.1,7.4-7.6,11.1c-1.8,2.6-3.4,5.4-5.1,8.1c-0.4,0.6-0.6,1.2-0.6,1.9c0,0.7,0.1,1.2,0.9,1.4c0.8,0.2,1.5,0.9,2.1,1.5
	c1.6,1.6,2.8,3.6,3.6,5.8c2.4,7.1,2.6,14.5,2.3,21.9c0,0.2-0.1,0.3-0.1,0.5c-0.2,2.2-0.7,4.4-1.3,6.5c-0.9,3.3-1.8,6.5-4.5,8.9
	c-0.4,0.3-0.6,0.8-0.9,1.3c-1.5,2.3-3.1,4.6-5.2,6.5c-1.3,1.1-2.7,2.3-4.1,3.4c-2,1.6-3.6,3.6-5.7,5.1c-1.5,1.1-2.9,2.3-4.3,3.6
	c-1.8,1.7-3.4,3.5-5.6,4.7c-1.5,0.9-2.4,2.3-2.2,4.1c0.1,0.8-0.2,1.4-0.5,2.1c-1.2,2.8-2.8,5.5-4.1,8.2c-0.5,1-1.1,2-1.4,3.1
	c-0.5,2-1.5,3.8-2.4,5.6c-2.1,4-4.6,7.9-6.3,12.1c-0.2,0.5-0.4,1-1,1.3c-1,0.5-1.4,1.5-1.3,2.6c0.1,1.3-0.2,2.6-0.4,3.9
	c-0.4,2-1,3.8-1.3,5.8c-0.4,2.6-0.3,5.2-1.2,7.7c-0.2,0.4,0,0.9,0.1,1.4c0.3,1.4,0.2,2.7-0.2,4c-0.8,3-1.9,5.8-3,8.7
	c-1.8,4.7-1.7,9.6-1.2,14.5c0.2,1.6,0.6,3.2,0.2,4.9c-0.3,1.6,0.6,4.4,2.7,5.2c1.4,0.5,2.7,1.2,4,1.8c0.6,0.3,1.2,0.4,1.6,1
	c-0.2,0.1-0.4,0.3-0.6,0.4c-1.6,0.6-3.3,1.2-4.9,1.9c-2.6,1.1-5.4,1.8-7.9,3.3c-0.2,0.1-0.5,0.3-0.8,0.2c-3.3-0.5-6.3,0.4-9.3,1.6
	c-1.9,0.8-3.8,1.6-5.4,2.9c-1.1,0.9-2.1,2-3.3,2.9c-2.9,2.1-5.8,4.2-8.1,7c-2.8,3.4-3.9,7.2-3.3,11.6c0.4,2.6,1,5.1,0.9,7.8
	c0,0.5-0.1,1.1,0.4,1.4c0.8,0.5,0.7,1.2,0.7,2c0,1.4,0.3,2.8,0.8,4.1c0.4,1.2,1,2.4,1.4,3.6c1.1,3.3,2.4,6.5,3.6,9.8
	c0.1,0.3,0.2,0.5,0.4,0.7c1.3,1.6,2.1,3.5,3.2,5.2c1.4,2.1,2.7,4.2,4.1,6.3c0.2,0.3,0.6,0.6,0.4,1.1c-0.4,0.9-1.8,1.4-2.9,1.1
	c-2-0.6-3.4-2-4.6-3.6c-0.6-0.7-1.7-1.1-1.6-2.3c0.1-0.9-0.3-1.3-1.2-1.2c-0.5,0-0.9-0.2-0.5-0.9c0.5-0.7,0.2-1.3-0.1-1.9
	c-0.6-1.3-1.1-2.6-1.8-3.9c-0.7-1.3-1.2-3-2.5-3.8c-2.1-1.4-4.2-2.8-6.2-4.2c-0.6-0.4-1.4-0.6-1.9-0.2c-1.1,0.9-2.5,1.5-3.1,2.9
	c-0.9,2.4-3,3.1-5.1,3.9c-0.8,0.3-1,0-0.9-0.8c0-0.4,0.3-0.6,0.4-0.9c0.8-2,2.4-3.6,3.1-5.6c0.8-2.2,2.1-4,3.2-6
	c0.6-1,1.1-2.1,1.5-3.2c1.5-4.3,2-8.7,2.3-13.2c0.1-2.2,0-4.5,0.2-6.8c0.3-2.7,0.3-5.3,0.4-8c0.2-4.3,0.4-8.6,0.5-13
	c0-1.4-0.1-2.7,0.8-4c0.3-0.5,0.3-1,0.2-1.5c-0.1-1.5,0.2-3,0.7-4.3c0.7-1.9,0.9-3.9,1-5.9c0.1-1.5,0-3,0.3-4.4
	c0.2-1,0.3-2.1-0.7-2.8c-0.3-0.2-0.3-0.6-0.3-1c0-1.8-0.4-3.6-0.7-5.4c-0.4-2.2-0.4-4.4,0.2-6.6c0.1-0.3,0.2-0.5,0.2-0.8
	c0-1.1-0.6-1.6-1.7-1.2c-0.5,0.2-0.9,0.4-1.4,0.6c-2,0.5-4,0.5-5.9,0.2c-2.2-0.3-3.8-1.7-5.2-3.3c-0.2-0.2-0.4-0.5-0.2-0.9
	c0.5-0.8,1.8-1.3,2.8-1c0.7,0.2,1.4,0.2,2.2,0c1.8-0.4,3.3-1.1,4.8-2.1c1.9-1.3,3.6-2.8,5.2-4.4c2.9-2.6,5.8-5.3,8.7-8
	c4.3-4,9-7.5,13.9-10.8c1.1-0.8,2.2-1.6,3.2-2.5c1.7-1.5,3.5-2.9,5.4-4.2c2.5-1.6,5-3.2,7.4-4.9c1.2-0.8,2.6-1.6,3.4-2.8
	c2.3-3.6,4.7-7.1,5.3-11.5c0.2-1.6,0.7-3.2,0.7-4.9c0-4.1-3.3-7.2-7.5-6.7c-1,0.1-2.2,0.1-3.1,0.9c-0.8,0.8-1.8,1.4-2.6,2.2
	c-3.2,3.1-6.6,5.9-10.6,8.1c-1.9,1.1-3.7,2.4-5.1,4.1c-1.6,2-3.5,3.8-6.3,4.1c-0.2,0-0.3,0.1-0.5,0.2c-4.7,1.9-9.2,4.3-13.7,6.6
	c-2,1-3.8,2.5-5.9,3.4c-4.1,1.8-8.1,3.8-11.8,6.5c-4,2.9-7.4,6.2-10.3,10.1c-3.1,4-4.9,8.7-6.3,13.5c-1.9,6.9-3.7,13.9-5.6,20.9
	c-0.4,1.6-0.7,3.4-1.4,4.9c-0.9,2-1.5,4-2.3,6c-2,5.3-4.1,10.5-6.4,15.6c-0.2,0.5-0.3,1-0.9,1.2c-0.9,0.4-1.3,1.3-1.5,2.2
	c-0.3,1.2-0.8,2.2-1.6,3.1c-0.5,0.5-0.8,1.1-1,1.8c-0.3,1-0.8,1.9-1.2,2.8c-0.8,1.5-1.3,3.1-0.7,4.9c0.1,0.2,0.1,0.6,0,0.8
	c-0.4,1.9-0.8,3.8-1.2,5.6c-0.1,0.7-0.2,1.3-1.1,1.5c-0.5,0.1-0.7,0.5-0.7,1c-0.1,3.2-0.4,6.5,1.1,9.5c0.4,0.9,0.9,1.9,1.1,2.9
	c0.3,2.4,0.8,4.7,1.5,7c1.2,4.1,2.5,8.1,5.2,11.6c0.4,0.5,0.5,1,0.6,1.6c0.4,2.3,1.1,4.5,1.7,6.8c0.3,1,0.7,1.9,1.6,2.5
	c0.6,0.3,0.8,0.9,0.8,1.6c0.4,4.5,1.2,9,2.3,13.4c1.7,7.3,4.2,14.3,7.5,21c0.4,0.9,1,1.7,0.5,2.7c-0.1,0.3,0.1,0.7,0.2,1
	c0.6,1.7,1.1,3.5,2,5.1c2.2,4,4.1,8.1,6.7,11.9c0.7,1,1.3,2.1,1.4,3.4c0.1,0.6,0.4,1.3,0.7,1.9c0.7,1.3,1,1.4,2.3,0.8
	c3.1-1.5,5.9-3.4,8.3-5.9c0.4-0.4,0.6-0.8,0.7-1.3c0.2-0.9,0.8-1.5,1.7-1.7c1.1-0.2,2.1-0.9,3-1.5c3.3-2.6,6.7-5.1,10-7.7
	c2.9-2.2,5.9-4.3,8.8-6.5c2-1.5,3.9-3.1,5.8-4.7c0.4-0.3,0.6-0.7,1.1-0.7c0.7,0,1.1-0.4,1.6-0.8c1.4-1.1,2.4-2.5,3.6-3.9
	c1.6-1.8,3-4,5.8-4.4c0.4-0.1,0.7-0.3,1-0.6c3.3-2.4,6.6-4.9,9.8-7.4c0.5-0.4,1-0.8,1.3-1.4c0.2-0.4,0.5-0.6,0.8-0.8
	c2.4-1.9,5.1-3.3,7.9-4.8c1.3-0.7,2.5-1.5,4-1.8c1.9-0.4,3.7-1.2,5.3-2.3c2.7-1.9,5.7-3.1,8.7-4.3c0.6-0.2,1.3-0.4,2-0.5
	c3.8-0.5,7.3-2.2,10.4-4.4c1.1-0.8,1.8-1.9,1.7-3.3c-0.1-1.1,0-2.2,0-3.2c0-0.9-0.2-1.3-1.2-1.5c-1.5-0.3-3-0.3-4.4-0.3
	c-4.1,0.1-8.2-0.1-12.2-1c-0.6-0.1-1.2-0.4-1.8-0.3c-1.8,0-3.5-0.5-5.1-1.2c-3.1-1.3-6.2-2.9-9.7-2.9c-0.5,0-0.9-0.1-1.1-0.7
	c-0.2-0.5,0-1,0.4-1.4c0.9-0.7,1.8-0.8,2.9-0.6c2.3,0.6,4.6,1.5,7,1.2c0.5-0.1,1,0,1.5,0c2.8,0.1,5.6,0.5,8.4,0.4
	c2.1,0,4.2-0.1,6.3,0.1c3,0.3,6,0.1,9,0.2c0.7,0,1-0.3,1-1c0-0.8,0-1.6,0.1-2.4c0.4-2.7,1.7-5.1,2.6-7.7c0.3-0.9,0.9-1.7,1.5-2.5
	c1.7-2.1,3.4-4.2,5.2-6.3c2.1-2.5,4.4-4.8,6.7-7c1.7-1.6,3.6-2.9,5.7-3.8c1.5-0.6,3-1,4.5-1.4c4.5-1.2,9.3-1.8,13.6-3.7
	c0.6-0.3,1.2-0.2,1.9-0.1c1.4,0.3,2.8,0.6,4.1,1c1,0.2,1.2,0.5,1,1.6c-0.1,0.7-0.2,1.3-0.2,2c0.2,3,0.1,6-1.8,8.5
	c-0.5,0.7-0.8,1.5-0.7,2.4c0.2,2.2-0.8,3.9-2.2,5.5c-0.5,0.5-0.7,1-0.4,1.7c0.3,0.6,1,0.6,1.5,0.5c1-0.1,1.9-0.5,2.6-1.1
	c0.3-0.2,0.5-0.5,0.8-0.6c0.9-0.5,1.5-0.5,2,0.1c0.6,0.8,0.1,1.3-0.4,1.8c-1.3,1.5-2.9,2.8-4.6,3.8c-1.1,0.6-2.4,1.2-3.7,1.1
	c-1.1-0.1-1.8,0.3-2.5,1c-1.5,1.6-2.1,3.8-4,5.1c-0.1,0.1-0.2,0.2-0.2,0.3c-0.2,1.3-1.3,1.9-2.2,2.7c-0.5,0.4-1,0.8-1.5,1.2
	c-0.4,0.4-0.6,0.9-0.4,1.4c0.2,0.6,0.6,0.9,1.3,0.9c0.5,0,1-0.1,1.5-0.1c1.4-0.1,2.7-1.1,4.1-0.8c1.2,0.2,2.2-0.1,3.3-0.6
	c1.8-0.9,3.6-1.9,5.7-2.1c1-0.1,1.9-0.5,2.8-0.9c2.3-0.8,4.2-2.4,6.7-2.9c0.4-0.1,0.7-0.3,1.1-0.5c3.3-2.1,6.6-4.3,9.4-7
	c3.1-3,6.7-5.3,9.8-8.2c1.5-1.4,3.1-2.9,4.5-4.4c1.4-1.6,1.2-3-0.5-4.3c-1-0.8-1.8-1.7-2.6-2.7c-1.9-2.3-3.5-4.8-6.4-6
	c-0.4-0.1-0.6-0.5-0.9-0.8c-2-2.3-4.4-4.1-7-5.7c-6.1-4-12.5-7.3-19.4-9.6c-2.8-0.9-5.5-2.4-8.6-1.6c0.1-0.3,0.1-0.4,0.2-0.5
	c0.6-0.6,1.4-0.6,2.1-1.1c0.5-0.4,1.1-0.4,1.8-0.2c2.5,0.6,3.4,0.1,4.5-2.3c0.2-0.5,0.5-0.9,1.1-0.8c1.4,0.1,2.8,0,4.2,0.2
	c2.7,0.4,5.2,1.2,7.7,2c0.9,0.3,1.7,0.5,2.6,0.6c2.1,0.3,4.3-2.5,3.4-4.8c-0.4-1.1-0.5-2.2-0.5-3.3c0-0.9,0-1.8,0-2.7
	c-0.2-2.2-0.6-4.5-1.9-6.3c-0.8-1.1-1-2.1-1.1-3.3c-0.1-1.8-0.1-3.6-0.3-5.4c-0.5-4.4-1.2-8.6-2-13c-0.7-4.2-2.2-8.2-3.3-12.3
	c-0.2-0.9-0.6-1.9-1.4-2.3c-1.8-0.8-3.4-2-5.4-2c-0.3,0-0.5,0.1-0.6-0.3c-0.2-0.6-0.5-1.3-0.6-1.9c-0.2-1.1,1.3-2.4,2.4-2.1
	c0.8,0.2,1.6,0.5,2.5,0.5c3.9,0.1,6.4-2,8.2-5.1c1.7-3,2.9-6.3,4.3-9.5c1.3-2.8,2.2-5.7,3.5-8.5c2.2-4.7,4.3-9.5,5.4-14.7
	c0.1-0.5,0.4-0.7,0.8-1c2.6-1.6,2.7-4.9,0.1-6.7c-0.6-0.4-1.1-0.9-1.3-1.7c-0.1-0.4-0.3-0.8-0.5-1.2c-0.7-1.4-1.3-2.8-2.5-3.8
	c-0.2-0.2-0.2-0.4,0-0.6c0.2-0.2,0.4-0.3,0.6-0.1c0.3,0.2,0.5,0.5,0.8,0.7c1.3,1.1,2.5,1.2,3.9,0.4c0.8-0.4,1.3-1.1,1.8-1.8
	c0.6-1,1.3-1.8,2.3-2.4c2.1-1.3,3.4-3.4,3.9-5.6c0.4-1.7,1.1-2.9,2.2-4.1c3.4-3.4,5.7-7.5,7.6-11.9c1.7-4.2,2.7-8.6,3.7-12.9
	c0.4-1.9,0.7-3.9,1.1-5.8c0.3-1-0.2-1.9,0.1-3c1.1-4.2,1.6-8.5,1.8-12.8c0.2-3.6,0.1-7.3,0.1-10.9c0-0.5,0-1-0.3-1.5
	c-0.5-0.6-0.6-1.5-0.8-2.2c-0.5-2.1-1.1-4.1-2.3-5.8c-1.5-2.1-3.4-3.2-6.1-3.2c-1.8,0-3.6,0.5-5.4,0.5c-0.5,0-1,0.3-1.4,0.6
	c-2.2,1.3-4.1,3-6.1,4.6c-2,1.6-3.7,3.6-5,5.8c-2.1,3.5-4.4,6.9-6.2,10.6c-3.1,6.2-6.7,12.2-9.3,18.6c-2,5-3.6,10.1-4,15.6
	c-0.1,1.6-0.1,3.2-1.2,4.7c-1.4,1.8-2.7,3.6-4.2,5.3c-0.3,0.3-0.5,0.4-0.9,0.4c-1.5,0.3-2.3,1.3-2.6,2.8c-0.5,2.8-1.6,5.4-3,8
	c-3.1,5.9-6.2,11.8-9,17.8c-3.2,6.8-3.6,13.9-2.1,21.1c0.9,4.1,0.5,8.1-0.7,12.1c-0.3,0.8-0.7,1.6-0.8,2.4c-0.6,4-1.2,8.1-1.8,12.1
	c-0.3,2.4-0.7,4.7-1.5,7c-2.7,7.5-4.6,15.2-5,23.2c-0.1,1.2-0.5,2.4-0.4,3.5c0.1,0.8-0.1,1.6-0.5,2.3c-0.5,0.9-0.7,2-0.5,3
	c0.4,1.9,1.1,3.8,2.5,5.2c1.3,1.4,2.4,2.9,3.3,4.5c0.9,1.5,2,2.9,2.4,4.7c0.8,3.3,1.1,6.7,1.9,10c0.2,1-0.3,1.4-0.9,1.8
	c-0.5,0.3-1,0.5-1.3,1c-0.8,1.6-2.3,2.1-3.8,2.5c-0.6,0.2-0.9,0.1-0.9-0.6c-0.1-1.4-0.5-2.7-0.3-4.1c0.2-1.4,0.6-2.8,0.8-4.2
	c0.2-1.3,0.5-2.8-0.6-3.9c-1.5-1.6-3.1-3-4.9-4.2c-1.4-1-3-1.6-4.6-1.7c-2.2-0.1-4.1-0.7-6-1.7c-0.6-0.3-1.2-0.4-1.8-0.4
	c-0.8,0-1.6-0.1-2.4,0c-0.8,0-1.5-0.2-1.8-1c-0.2-0.5,0.3-2.1,0.7-2.3c1.7-0.6,3.2-1.8,5.1-1.5c0.7,0.1,1.3-0.1,1.3-0.9
	c0-0.8,0.5-1.5,0.7-2.3c0.4-1.3,1.2-2.6,0.1-4c-0.2-0.3-0.1-0.8-0.1-1.2c0-0.9,0.1-1.7,0-2.6c-0.4-3-0.5-6.1-0.6-9.2
	c-0.2-8.2-0.4-16.4,0.5-24.5c0.1-0.6,0-1.3-0.2-1.8c-0.6-1.2-0.5-2.5-0.3-3.7c0.4-1.8,0.2-3.5,0.3-5.3c0-0.9-0.5-1.3-1.2-1.5
	c-0.5-0.1-1-0.2-1.5-0.1c-1.8,0.3-3.7,0.3-5.6,0.4C263.2,276.3,263.2,276.4,262.6,275L262.6,275z M435.8,212.8c1.7,0,1.7,0,1.7,1.4
	c0,1.1,0.2,2.3,0.3,3.4c0.3,1.9,1.3,3.5,2.3,5.1c0.6,0.9,1.6,1,2.2,0.5c0.5-0.5,0.5-1-0.2-1.9c-0.8-0.9-1.4-1.9-1.7-3.1
	c-0.8-3.2-0.9-6.4,0-9.6c1.1-4,0.7-7.8-1.9-11.1c-0.7-0.9-1.2-2-1.2-3.1c-0.2-3.1-0.2-6.1,0.1-9.2c0-0.3,0-0.7,0.1-1
	c1-2.2,0.1-3-1.7-3.6c-1.6-0.6-2.4-1.8-2.8-3.4c-0.4-1.6-0.5-3.1-0.4-4.7c0-1,0.1-2.1,0-3.1c0-1-0.2-2-0.9-2.7
	c-1.9-1.9-4.1-2.8-6.8-2.2c-0.4,0.1-0.9,0.2-1.4,0.1c-1.3-0.2-2.6,0.1-3.9,0.2c-2.2,0.3-4.4,0.6-6.6,0.8c-1.7,0.1-3.4,0.2-4.7,1.7
	c-0.8,0.9-1.8,1.6-2.7,2.3c-2.2,1.9-4.3,3.8-5.3,6.7c-1,3.1-0.4,5.8,1.9,8.1c0.4,0.4,0.8,0.9,1.1,1.2c2.4,2.4,4.6,5,7.5,6.9
	c0.4,0.3,0.9,0.6,1.1,1.1c0.6,1.5,1.8,2.5,2.8,3.6c0.9,0.9,1.3,2.2,1.8,3.4c-1,0.2-1.8,0-2.5-0.2c-3.4-0.9-6.7-1.7-10.2-1.6
	c-0.8,0-1.6-0.3-2.4-0.1c-4.7,1.2-9.1,2.7-12.8,6c-2.4,2.2-3.8,4.6-3.8,7.8c0,4.2,2.6,7.2,6.4,7.8c1.5,0.2,2.9,0.6,4.3,0.9
	c1.4,0.3,2.5,1,3.1,2.4c0.5,1.2,0.5,1.3-0.5,2.1c-1.2,0.9-2.5,1.6-3.8,2.2c-3.1,1.5-6.4,2.5-9.7,3.1c-2,0.4-2.9,1.5-3,3.6
	c0,1.1,0.3,2,1,2.8c0.6,0.9,0.3,1.6-0.8,1.8c-0.5,0.1-1,0.2-1.5,0.4c-2.5,0.8-3.5,4.3-1.5,5.9c1.2,1,1.2,2,1,3.2
	c0,0.3-0.1,0.7-0.1,1c0,2.9,1,5.3,3.8,6.5c0.7,0.3,1,0.7,1.3,1.3c0.6,1,1,1.1,2.1,0.7c0.4-0.1,0.7-0.4,1-0.6
	c1.5-0.9,2.9-2.1,4.4-2.8c2.9-1.4,5.7-2.9,8.9-3.6c3.1-0.6,6.2-1.5,9.1-2.7c0.7-0.3,1.4-0.3,2-0.1c2.2,0.7,4.6,1,6.9,1.2
	c2.7,0.2,5.5,0.2,8.1-0.8c3.8-1.4,5.6-6.8,1.8-10.1c-0.7-0.6-1.4-1.1-2.2-1.6c-2-1.2-4.1-2.2-5.9-3.8c-0.7-0.6-1.5-1.2-1.9-1.9
	c0.4-0.4,0.7-0.7,1-1.1c0.4-0.7,0.7-0.6,1.4-0.3c1,0.6,2,1.1,3.1,1.4c2,0.5,4,1.1,6,1.8c1.9,0.6,4.3-0.3,5.4-2
	c0.7-1,0.5-1.8-0.7-1.9c-1.1-0.1-1.8-0.7-2.5-1.3c-1-0.8-1.9-1.6-2.8-2.5c-0.7-0.7-1.8-1.5-1.9-2.3c-0.1-1.3-0.9-1.7-1.6-2.3
	c-1.9-1.6-2.6-3.6-2.9-6c-0.1-1.2,0.8-1.7,1.9-1.2c0.7,0.3,1,0.9,1.4,1.4c0.9,1.2,1.7,2.7,3.2,3.2c1.5,0.4,2.3,1.6,3.4,2.5
	c0.7,0.7,1.4,1.5,2.1,2.2c0.2,0.2,0.3,0.5,0.7,0.3c0.3-0.2,0.2-0.5,0.1-0.8c0-0.5-0.6-0.9-0.2-1.4c0.6-0.7,0.3-1.5,0.2-2.3
	C436.1,217,435.9,214.9,435.8,212.8L435.8,212.8z M468.7,201.7c1.7-0.7,2.2-2.1,2.5-3.8c0.5-2.1,0.5-4.3,0.5-6.5
	c0-2,0.2-2.3,2.1-2.9c0.4-0.1,0.9-0.3,1.3-0.4c1.3-0.3,2.6-0.3,3.7,0.6c1.1,1,1.5,2.2,1,3.7c-0.3,0.7-0.4,1.5-0.5,2.3
	c-0.5,2.8-1.7,5.5-1.8,8.4c0,0.9,0.4,1.4,1.3,1c0.5-0.2,0.9-0.7,1.2-1.2c0.2-0.4,0.3-0.9,0.8-1.1c1.2-0.5,1.9-1.6,2.7-2.5
	c1.4-1.6,2.9-3,4.6-4.3c0.7-0.5,1-0.4,1.2,0.4c0.1,0.4,0.1,0.9,0.2,1.4c0.1,0.6,0.3,1.2,0.9,1.4c1.1,0.3,1.3,0.9,1.2,1.9
	c0,0.4,0.2,0.8,0.6,1c0.6,0.3,0.5,0.7,0.2,1.1c-1.2,1.9-2.4,3.9-3.9,5.6c-2.2,2.5-4.7,4.6-7.3,6.6c-0.6,0.4-1.3,0.8-1.6,1.4
	c-0.5,1-1.4,1.4-2.2,2.1c-1.6,1.4-3.5,2.6-5.3,3.7c-0.3,0.2-0.6,0.4-0.9,0.6c-0.2,0.1-0.3,0.4-0.2,0.6c0.1,0.3,0.3,0.3,0.5,0.3
	c0.7,0.1,1.2-0.3,1.7-0.6c6.7-4.1,13-8.8,18.5-14.4c0.3-0.3,0.5-0.8,0.9-0.7c1.4,0.3,2.4-0.6,3.4-1.3c4.4-3,7.8-6.9,10.6-11.4
	c1-1.5,1.7-3.2,2.9-4.4c1.7-1.7,2.9-3.8,4.2-5.8c0.4-0.7,0.8-1.4,1.2-2c1.9-3.3,4.1-6.4,5.8-9.9c1-2.1,1.4-4.2,1.1-6.5
	c-0.2-1.5-0.5-3-1.7-4c-0.8-0.7-1.2-1.4-1.7-2.2c-0.3-0.5-0.6-1.1-0.9-1.6c-1.1-1.6-2.3-3.1-4.1-3.7c-1.5-0.5-3-1-4.6-1.1
	c-1.2-0.1-2.4-0.2-3.6-0.3c-4.2-0.6-7.7,0.8-10.4,4.1c-1.1,1.4-2.3,2.7-3.4,4.1c-0.3,0.4-0.5,0.8-1,1c-0.4-3.3-1.2-4-4.8-4.6
	c0-0.2,0-0.4,0-0.7c0.1-2-0.7-3.2-2.5-3.7c-1.5-0.4-3.2-0.4-4.3,1.5c-1.2,2-2,4.1-1.9,6.5c0,0.4,0.2,0.9-0.2,1.3
	c-0.6,0-1.1-0.1-1.7,0c-1.4,0.2-1.4,0.2-1.9-1.1c-0.8-1.9-1-3.8-1.3-5.8c-0.4-3.2-0.9-6.4-2.5-9.3c-2.1-3.9-5-7-9.9-6.9
	c-0.2,0-0.3,0-0.5-0.1c-2-0.5-4-0.3-6-0.1c-1,0.1-1.9,0.4-2.7,0.9c-3.2,1.8-5.2,4.5-6.8,7.7c-0.7,1.4-0.8,2.9-0.6,4.5
	c0.5,3.8,1.9,7.4,2.5,11.3c0.8,5.4,2.6,10.7,4.2,16c0.2,0.7,0.4,1.4-0.1,2.1c-0.3,0.4-0.3,1-0.2,1.5c0.5,1.8,0.3,3.6-0.1,5.3
	c-0.4,2,0.3,3.7,1.4,5.2c0.5,0.6,1,1.1,1.8,1.2c1.1,0.1,1.6,0.7,2,1.7c0.3,0.8,0.8,1.5,1.2,2.2c0.2,0.4,0.4,0.7,0.5,1.1
	c0.5,3.3,1.2,6.5,2.1,9.6c0.7,2.3,0.8,4.7,1.6,7c0.6,1.8,1,3.8,1.8,5.5c0.4,0.8,1.1,1.1,1.8,0.8c0.7-0.3,1-0.8,0.7-1.6
	c-0.4-1.5-0.7-3-1-4.5c-0.3-1.6-0.6-3.1-0.8-4.7c-0.1-1-0.5-2.2,0.8-2.9c0.4-0.2,0.3-0.7,0.3-1.1c0-1,0-1.9-0.2-2.9
	c-0.5-2.5-1.1-5-1.8-7.5c-0.5-1.9-1-3.9-1.1-5.9c0-0.5-0.3-1.1,0.2-1.4c0.7-0.3,1.5-0.3,2.1,0.2c0.2,0.2,0.5,0.4,0.6,0.6
	c0.5,1,1.4,2,1.5,3.2c0,0.4,0.1,0.8,0.5,1c0.6,0.3,0.7,0.9,0.9,1.4c0.2,0.8,0.4,1.6,0.6,2.5c0.1,0.3,0,0.8,0.5,0.8
	C468.2,200.3,468.2,201.2,468.7,201.7L468.7,201.7z M276.7,197c0.2-1-0.3-2.1-0.3-3.3c0.1-2.1-0.5-4.2-1.1-6.2
	c-1.1-3.3-5.3-4.4-7.5-1.8c-2.2,2.6-4.7,4.9-7.1,7.4c-3,3.3-6.8,5.6-10.5,8c-1.8,1.2-3.8,2-5.7,3.1c-5.6,3.3-11.2,6.6-16.7,9.9
	c-5.1,3-10,6.2-15.3,8.9c-2.3,1.2-4.7,2.3-7.1,3.4c-2.8,1.3-5.3,2.8-7.8,4.5c-2.1,1.4-4,3.2-6.3,4.3c-4.9,2.4-9.6,5.1-14,8.4
	c-3.1,2.3-6,4.8-8.5,7.8c-0.9,1-1.5,2.3-2.7,3c-2,1.1-3.4,2.8-4.4,4.9c-0.2,0.5-0.5,0.9-0.8,1.3c-1,1.8-2.6,3-3.9,4.5
	c-0.7,0.7-1.4,1.5-1.4,2.5c-0.1,1.9-1.1,3.3-2.1,4.8c-0.2,0.3-0.5,0.7-0.4,1.1c0.2,1.1-0.3,2-0.8,2.9c-0.9,1.6-1.4,3.4-1.8,5.1
	c-0.1,0.7,0,1.3,0.6,1.6c0.6,0.3,1.2-0.1,1.5-0.5c0.7-1,1.6-1.8,2.4-2.7c3.3-3.9,7.2-7,11.6-9.8c2.1-1.3,4.5-2.2,6.6-3.6
	c4.4-3.1,9-5.8,13.8-8.2c3.9-2,7.9-3.8,11.7-6c3.1-1.7,6.1-3.6,9-5.5c4.4-2.8,8.7-5.8,13.2-8.6c2.2-1.4,4.2-3,7.1-3.3
	c3.7-0.3,6.7,1,8.4,4.3c0.9,1.6,1,3.5,2.1,5c1.1,1.6,1.9,1.9,3.6,0.9c0.3-0.2,0.6-0.4,0.8-0.6c2.1-1.7,4.3-3.4,6.3-5.2
	c5.5-4.9,11-9.7,16.2-14.9c2.6-2.6,4.5-5.6,5.8-8.9c2-4.9,3.5-10.1,5.3-15.1C276.6,199.3,276.8,198.2,276.7,197L276.7,197z
	 M493.6,270.2c-0.5,0.7-1.1,1.1-1.2,1.8c-0.4,1.8-1.7,2.4-3.3,2.8c-1.1,0.3-2.3,0-3.4,0.3c-1.8,0.4-3.5-0.1-5.1-0.8
	c-3.9-1.8-6.8-4.7-8.8-8.5c-1.5-2.8-2.7-5.6-3.9-8.5c-0.2-0.6-0.5-1-1.2-0.9c-0.7,0.1-0.7,0.7-0.7,1.2c-0.3,2.5-0.9,5-1.6,7.5
	c-0.5,1.8-0.9,3.5-0.9,5.4c0,1.2-0.3,2.5-0.4,3.7c-0.1,1.7-1.1,2.6-2.3,3.5c-1,0.7-1.7-0.1-2.6-0.3c-0.7-0.1-0.5-0.8-0.5-1.3
	c0.3-2.6,0.1-5.2,0.5-7.8c0.2-1.7,0.8-3.3,0.5-5.1c-0.2-1.4,0.4-2.8,0.2-4.2c-0.1-1-0.4-1.2-1.3-0.9c-1,0.3-1.2,1.2-1.3,2
	c-0.2,1.3-0.6,2.5-0.9,3.8c-0.1,0.4-0.2,0.9-0.6,1.1c-1.2,0.6-1.8,1.8-2.2,3c-1.6,4.1-3.8,7.7-7.2,10.5c-1.9,1.6-3.8,3.2-5.5,5.1
	c-2,2.2-2.9,4.9-3.4,7.7c-0.1,0.8-0.1,1.6,0.1,2.4c0.1,0.7,0.6,0.9,1.2,0.9c0.5,0,0.9-0.2,1.2-0.5c1.2-0.9,2.4-1.7,3.6-2.5
	c1.7-1.2,3.7-1.7,5.8-1.9c0.6,0,1.7-0.3,1.9,0.6c0.2,1.2-0.9,1-1.7,1.2c-1.8,0.4-2.8,1.3-3,2.8c-0.2,2,0.5,3.4,2.2,4.2
	c2.1,1,4.3,0.8,6.3-0.1c1.2-0.5,2.5-0.8,3.8-0.8c3-0.1,5.9-0.1,8.9,0.1c1.2,0.1,2.2,0.4,3.1,1.4c1,1.2,1.8,1.1,2.9,0.2
	c0.2-0.1,0.4-0.3,0.5-0.5c2.8-2.5,5.6-4.8,8.5-7.2c0.5-0.4,1.1-0.7,1.8-0.8c1.2-0.2,2.4-0.2,3.6-0.1c1.5,0.2,2.9,0.3,4.4,0.5
	c2.5,0.2,4.9-0.1,7.2-1c1.5-0.6,2.9-1.1,4.6-0.8c0.7,0.1,1.5,0,2.2-0.1c2.8-0.4,5.6-1,8.2-2c1.6-0.6,3.3-1.2,5.1-1.3
	c1.1-0.1,2.2-0.1,3.4-0.1c0.8,0,1.6-0.2,2.3-0.4c0.5-0.1,0.9-0.5,0.8-1.1c-0.1-0.5-0.5-0.6-0.9-0.6c-1,0-1.9-0.4-2.9-0.2
	c-0.7,0.1-2.7-1.1-2.6-1.6c0.3-1.1-0.2-1.8-0.8-2.6c-0.4-0.6-0.3-1.4,0.1-1.9c0.5-0.5,1.1-0.5,1.7-0.2c0.9,0.3,1.9,0.5,2.8,0.5
	c1,0.1,1.9,0,2.7-0.7c0.4-0.4,1-0.6,1.4-0.4c1.2,0.6,2,0,3-0.5c0.8-0.4,1.7-0.7,2.6-0.9c0.8-0.2,1.7-0.4,2.5-0.7
	c1.4-0.6,2-1.6,1.7-3.1c-0.1-0.5-0.1-0.8,0.2-1.2c0.5-0.5,0.8-1.1,1.2-1.6c0.8-1.1,1.6-2.1,2.7-3c1.5-1.1,2.2-2.7,2-4.6
	c-0.2-1.8-1.7-3-3.4-2.3c-1.5,0.6-3,0.5-4.5,0.6c-2,0.1-4,0.3-6-0.1c-3-0.6-5.5-1.9-7.6-4.3c-1.4-1.6-2.8-3.2-4.5-4.4
	c-4-2.9-8.6-4.6-13.5-5.5c-2.5-0.4-5-0.7-7.4-1.3c-2.9-0.6-5.6-1.8-8.3-3.1c-3.5-1.8-7.3-2.5-11.3-1.8c-1,0.2-1.9,0.7-2.9,1.1
	c-0.3,0.1-0.4,0.3-0.3,0.7c0.1,1.8-1,2.8-2.4,3.6c-0.7,0.4-1.4,0.7-2,1.3c-0.3,0.3-0.8,0.6-0.5,1.1c0.3,0.6,0.9,0.4,1.4,0.2
	c0.6-0.2,1.2-0.6,1.9-0.8c4.7-0.9,9.4-2,14.1-0.6c0.3,0.1,0.7,0.1,1,0.2c0.5,0.1,1,0,1.3-0.4c0.8-1.1,1.8-0.8,2.7-0.5
	c1.1,0.4,2.3,0.6,3.5,0.9c1.8,0.4,3.6,0.9,5.4,1.6c0.7,0.3,1.3,0.7,1.8,1.3c0.4,0.5,0.5,0.9,0.1,1.5c-1,1.5-1,1.6-0.9,3.5
	c0,0.2,0,0.3,0,0.5c0,1.5,0,1.6-1.5,1.5c-4.6-0.3-9.2-0.2-13.8-1.3c-2.1-0.5-4.3-1-6.4-1.6c-1.8-0.6-3.7-0.9-5.6-0.4
	c0.4,2.1,1.6,3.4,3.3,4.4c2.1,1.3,4,2.6,5.7,4.5C485.6,264.9,489.2,267.9,493.6,270.2L493.6,270.2z M533,245.8
	c2.4,0.1,4.4-0.2,6.5-0.8c2.6-0.7,4.9-2.1,7.2-3.2c2.6-1.3,4.2-3.3,4.6-6.2c0.2-1.5,0.3-3.1,0.1-4.6s-0.8-2.8-2.6-3.1
	c-1.3-0.2-2-1.1-2.5-2.3c-0.6-1.5-0.3-1.5,0.8-1.8c2-0.5,3.8-1.4,5.5-2.5c2.2-1.5,3.6-3.8,4.6-6c1.7-3.8,0.2-7.4-2-10.8
	c-1.1-1.7-2.8-2.6-4.8-3c-1.8-0.4-3.4-0.2-4.4,1.7c-0.2,0.4-0.5,0.6-0.8,0.8c-2.8,1.4-5.5,1.5-8.3-0.1c-0.6-0.4-0.6-0.7-0.1-1.2
	c1.7-1.8,3.4-3.4,5.9-4.1c2.5-0.7,3.9-2.6,4-5.1c0.1-3.1-0.7-6.1-2.3-8.8c-0.5-0.9-1.3-1.8-2.4-2.1c-1.3-0.3-2.2-1-3.1-1.9
	c-1.3-1.2-4.3-1.5-5.5-0.4c-1.5,1.4-3,3-3.1,5.1c-0.1,1.4-0.7,2.4-1.4,3.4c-0.5,0.7-0.9,1.3-1.4,1.9c-1.7,2.1-3.1,4.5-5.4,6.1
	c-1.4,0.9-2.6,2.1-3.1,3.7c-0.1,0.4-0.4,0.5-0.7,0.7c-1.6,1.2-3.2,2.3-5.1,3.1c-1,0.4-1.8,0.9-2.7,1.4c-1.9,1.1-3.8,2.3-5.5,3.8
	c-0.5,0.4-1,0.7-1.6,0.9c-1.6,0.6-2.7,1.6-3.5,3.1c-0.3,0.6-0.6,1-1.1,1.4c-1.2,1-2.4,1.9-3.5,3c-2,2-3.8,4.1-6.1,5.7
	c-0.2,0.2-0.5,0.3-0.7,0.5c-0.4,0.4-0.5,0.8,0,1.2c0.2,0.1,0.5,0.3,0.5,0.4c-0.3,1.3,0.5,0.8,1,0.6c1.5-0.6,2.9-1.5,3.7-3.1
	c0.6-1.3,1.6-2.2,3.1-2.6c1.2-0.3,2.3-1,3.3-1.7c1.5-1.1,3.3-1.4,5.1-1.7c0.4-0.1,0.8,0,1.1,0.2c1.3,0.9,2.4,1.9,2.5,3.6
	c0.1,0.8-0.1,1.4-0.9,1.8c-1.3,0.7-2.6,1.3-4,1.9c-0.4,0.2-0.9,0.2-1,0.6c-0.3,0.9-0.8,1.2-1.6,1.5c-0.4,0.1-0.7,0.5-0.6,0.9
	c0.1,0.5,0.5,0.6,1,0.6c1.2,0,2.4,0,3.6,0c1.7,0,3.3,0.4,4.6,1.4c1.6,1.2,2,3.6,0.1,5.1c-0.7,0.5-1.5,0.6-2.3,0.6
	c-2.1,0-4.2-0.5-6.1-1.3c-2.9-1.1-5.8-2-9-1.7c-1.6,0.1-2.8,0.9-3.9,1.8c-0.5,0.4-0.5,0.9,0,1.3c2.5,1.7,5.1,3,8.2,2.9
	c2.5-0.1,4.9,0.2,7.3,0c2.6-0.2,4.8,1.1,7.3,1.4c1.7,0.2,3.5,0.9,5.3,1.3c3.1,0.7,5.4,2.5,7.5,4.7c1,1,2,1,2.7-0.2
	c0.2-0.4,0.3-0.5,0.7-0.4C529.6,245.8,531.4,245.7,533,245.8L533,245.8z M122.9,544.1c0,1.2-0.1,2.4,0,3.6c0.1,1,0.4,1.3,1.2,1.3
	c0.8,0,1.2-0.3,1.1-1.3c0-1.1,0.3-2.1,0.8-3.1c2.8-4.9,5.6-9.7,8.5-14.6c2.1-3.7,4-7.5,5.6-11.5c0.8-2,1.6-3.9,3.1-5.5
	c0.6-0.6,1.1-1.3,1.6-2c3.5-4.3,7.3-8.4,11.4-12.1c4-3.7,8.3-6.9,12.6-10.2c0.8-0.6,1.7-1,2.4-1.7c1.2-1.3,2.6-2.4,4.2-3.1
	c3.6-1.8,7.1-3.7,10.5-6.1c2.4-1.7,4.4-3.8,6.8-5.4c0.7-0.5,1.4-0.9,2.1-1.4c4-3.2,7.7-6.8,11.3-10.3c2.1-2.1,4.1-4.2,6.4-6.2
	c0.7-0.6,1.3-0.9,2.2-1c1.6-0.1,3.2-0.4,4.4-1.5c0.6-0.6,1.3-1,2.1-1.2c6.1-2,11-5.7,15.1-10.6c2.2-2.6,4.3-5.3,6.8-7.6
	c0.7-0.6,1.3-1.3,2.1-1.7c2-1,4-1.8,6-2.9c1.6-0.9,3.6-1.2,4.8-2.9c0.2-0.2,0.6-0.3,0.9-0.4c0.6-0.2,1.3-0.4,1.9-0.7
	c4.7-1.8,9.4-3.3,14.2-4.7c3.3-1,6.8-1.4,10.1-2.2c11.7-2.9,23.5-5.8,35.2-8.8c0.5-0.1,1-0.4,1.5-0.2c1.4,0.3,2.6-0.3,3.7-0.9
	c0.9-0.5,1.9-1,2.8-1.6c8.2-4.6,15.6-10.4,22-17.3c1-1.1,2-2,3.3-2.6c0.9-0.5,1.1-1,1.1-1.9c0-1.7-1-3.1-1.3-4.7
	c-0.2-1.1-1.3-1.1-2.3-0.5c-1.2,0.7-1.9,1.9-2.9,2.9c-3.3,3.4-6.9,6.6-10.6,9.6c-6.9,5.6-14.3,10.2-22.7,13.4
	c-6.4,2.4-13,3.8-19.8,3.6c-0.6,0-1.2,0-1.9,0c-0.4,0-0.8,0.1-1,0.5c-0.6,1.4-2,1.8-3.2,2.3c-1.5,0.6-3.1,0.8-4.6,1
	c-4.3,0.5-8.4,1.8-12.2,3.9c-2,1.1-4,2.4-6.4,2.6c-0.4,0-0.8,0.1-0.8,0.5c-0.2,1.2-1.2,1.4-2.1,1.7c-7.5,2.8-15,5.7-21.9,9.6
	c-2.9,1.7-5.8,3.4-8.4,5.5c-1.5,1.2-2.9,2.8-4.8,3.4c-1.8,0.5-3.3,1.6-4.8,2.5c-3.6,2.2-6.9,4.9-9.9,7.8c-2.1,2.1-4.6,3.7-7.2,5.2
	c-5.7,3.3-11,7-16,11.3c-2.3,2-4.4,4.1-6.5,6.3c-0.9,1-1.8,1.8-3,2.5c-4.6,2.5-9,5.1-13.2,8.2c-1.5,1.2-2.9,2.5-4.7,3.4
	c-5.9,2.9-11.5,6.2-16.8,10.1c-6,4.4-11.8,9.2-16.6,14.9c-1.2,1.4-2.4,3-2.8,4.8c-0.4,1.8-0.6,3.7-0.7,5.6
	c-0.3,3.5-0.6,6.9-0.7,10.4C123.2,536.2,123.1,540.2,122.9,544.1L122.9,544.1z M211.1,304.3c0.1-2.2,0.1-4.2,0.3-6.4
	c0.2-2.4,0.4-4.9,0.7-7.3c0.1-0.8,0.3-1.6,0.3-2.4c0-0.4-0.1-0.9-0.6-1.1c-0.4-0.1-0.6,0.1-0.9,0.4c-2.3,2.4-4.9,4.6-7,7.2
	c-1,1.2-1.8,2.6-3.1,3.4c-2,1.3-3.3,3.1-4.3,5.1c-0.3,0.6-0.5,1.3-0.9,1.8c-0.9,1.2-1.2,2.6-1.2,4c-0.1,4,0.1,8.1-0.3,12.1
	c-0.3,3.3-0.5,6.7-0.9,10c-0.4,3.4-1.3,6.8-2.1,10.2c-1.1,4.9-1.9,9.8-2.3,14.8c0,0.2,0,0.3,0,0.5c0,0.4,0.2,0.7,0.6,0.8
	c0.3,0.1,0.5-0.1,0.8-0.3c0.2-0.2,0.3-0.3,0.4-0.5c4.7-5.9,10.7-9.6,18-11.2c2.6-0.6,5.1-1.1,7.2-3.1c1.1-1,1.9-2,1.8-3.4
	c-0.2-2.5-0.3-5.1-0.9-7.6c-0.7-2.8-1-5.7-2-8.4c-0.1-0.4-0.2-0.8-0.1-1.2c0.7-2.8,0-5.3-1.2-7.7c-0.5-1-1.1-2-1.6-3
	C210.8,308.8,211.2,306.5,211.1,304.3L211.1,304.3z M275.5,445c-2.8,0.1-5.1,0-7.5-0.2c-3.3-0.3-6.4-1.1-9.3-2.5
	c-3.5-1.6-7-3-10.8-3.4c-0.9-0.1-1.4,0-1.5,0.9c-0.1,0.7-0.4,0.9-1,1.2c-2.2,1-3.7,2.8-4.6,5c-0.6,1.4-0.3,1.8,1.1,2.1
	c0.4,0.1,0.7,0.2,1,0.5c2.6,2.8,6.1,4.2,9.6,5.3c3.9,1.2,7.9,2,12,2.5c3.4,0.4,6.8,0.3,10.2-0.3c6.1-1,11.8-3.4,17.5-5.7
	c4.4-1.7,7.8-4.9,11.2-8c0.5-0.5,0.5-1,0.3-1.6c-0.1-0.5-0.6-0.6-1.1-0.7c-1.5-0.1-2.9-0.4-4.4-0.3c-2.7,0-5.5-0.4-8.2-0.4
	c-2.2-0.1-4.4-0.5-6.5-1.2c-2.4-0.9-4.8-1.7-7.2-2.6c-5.7-2.2-11.7-3.2-17.8-2.5c-0.8,0.1-1.7,0.2-2.5,0.4c-0.6,0.1-1.3,0.3-1.4,1
	c-0.1,0.8,0.5,1.2,1.2,1.4c0.7,0.2,1.4,0.3,2.2,0.2c1.3,0,2.6,0,3.9,0.2c3.2,0.6,6.2,1.9,9.2,3c1,0.4,1.9,1,2.2,2
	C273.7,442.7,274.1,443.9,275.5,445L275.5,445z M305.5,372.5c0-0.5,0-1.1,0-1.7c-0.1-1.1-0.9-1.7-1.9-1.1c-1.6,0.9-3.4,1.2-5,2
	c-1.1,0.5-2.2,1.2-3.4,1.5c-2.1,0.6-4,1.5-5.8,2.8c-2.9,2-5.5,4.4-8,6.9c-0.7,0.7-1.3,1.6-1.6,2.6c-0.3,0.8-0.7,1.5-1.2,2.2
	c-1.4,1.9-2.2,4.1-2.8,6.4c-0.3,1.1-0.9,2.3-1,3.4c0,1.4-0.5,2.6-1.4,3.5c-2.5,2.4-2.8,5.5-3.1,8.6c-0.1,1,0.5,1.4,1.5,1.2
	c0.8-0.2,1.5-0.4,2.3-0.6c2.7-0.6,5.3-1.6,7.5-3.3c1.1-0.9,2.2-1.6,3.3-2.4c5.8-4.5,10.5-10,14.2-16.4c1.5-2.7,3-5.4,4.4-8.1
	C304.7,377.7,305.7,375.3,305.5,372.5L305.5,372.5z M440.8,259.7c-1.4,0.4-3.1,0.4-4.1,1.5c-0.9,1-1.9,1.8-2.8,2.7
	c-0.7,0.6-1.4,1.3-2,2.1c-3,4.2-6.1,8.4-10,11.9c-0.5,0.5-1,1.1-1.4,1.7c-0.2,0.2-0.4,0.5-0.4,0.8c0,1-0.7,1.8-1.2,2.6
	c-0.4,0.6-0.8,1.2-1,2c-1.3,3.6-3.8,6.5-6.2,9.3c-1.3,1.6-2.6,3.1-3.4,5.1c-0.3,0.8-0.7,1.6-1.2,2.2c-1.5,2-3,4-4.5,6
	c-1.3,1.7-2.2,3.5-3.1,5.4c-0.2,0.5,0.1,0.8,0.2,1.1c0.7,1.8,1.3,3.7,1.5,5.6c0.4,2.6,1.3,5.1,1.1,7.7c-0.1,0.9,0.5,1.2,1.3,0.9
	c0.7-0.2,1-0.6,1.1-1.3c0.3-1.3,0.8-2.6,1.2-3.9c0.9-2.5,2.2-4.7,3.4-7.1c1.4-2.8,3-5.4,3.9-8.4c0.2-0.5,0.5-1,0-1.6
	c-0.3-0.4,0.1-0.6,0.2-0.9c1.3-3.1,3.5-5.9,3.8-9.4c0-0.1,0.1-0.2,0.2-0.3c1.4-2.5,2.4-5.2,3.5-7.8c1.2-2.7,2.3-5.4,4.8-7.3
	c4.2-3.3,7.6-7.4,10.4-11.9c1.5-2.4,2.6-5.2,4.4-7.5C440.7,260.8,440.9,260.4,440.8,259.7L440.8,259.7z"/>
<path d="M84,155.2c-1.8,0.3-2.9,1.6-4,2.7c-1.4,1.4-3.1,2.7-4.4,4.2c-1.5,1.6-3.1,3.2-4.3,5.1c-1.9,2.8-4.3,5.1-6.2,7.9
	c-1.3,2-3,3.8-4.8,5.6c0,0-0.1,0.1-0.1,0.1c-2.7,4-6.2,7.5-8.4,11.8c-0.2,0.5-0.5,0.9-0.7,1.4c-1.8,3.1-3.6,6.3-5.2,9.5
	c-0.6,1.2-1.4,2.2-2.3,3.2c-1.2,1.4-2.2,2.9-2.9,4.6c-2.8,6.2-5.3,12.6-7.2,19.1c-0.4,1.3-0.8,2.6-1.3,3.9c-0.8,2.3-1.5,4.6-2,7.1
	c-0.4,2-1,4-1.6,5.9c-1.1,3.2-1.7,6.6-2.4,9.9c-1,5-1,10.2-2.3,15.2c-0.3,1.4-0.4,2.8-0.5,4.2c-0.1,2.9-0.4,5.8-1,8.6
	c-0.3,1.6-0.5,3.3-0.3,4.9c0.3,2.7-0.3,5.3-0.1,8c0,0.3,0,0.6,0,0.9c0.6,2.4,0.4,4.8,0.5,7.2c0.1,1.7,0.2,3.4,0.7,5
	c0.1,0.4,0,0.8,0,1.2c-0.3,2.2-0.3,4.4,0.1,6.6c0.2,1.2,0.1,2.5,0.2,3.7c0,0.3-0.1,0.6,0.1,0.8c1.2,0.8,1,2.2,0.9,3.2
	c-0.1,1.8,0.8,3.4,1,5.1c0.2,2.5,1.4,4.6,1.8,7.1c0.2,1.3-0.1,2.7,0.6,4c1.1,2.2,1.5,4.7,1.5,7.2c0,0.9,0.1,1.6,0.6,2.4
	c0.4,0.7,0.6,1.5,1,2.2c1.4,3.1,2.9,6.2,4.2,9.3c0.2,0.6,0.7,0.9,1,1.3c0.9,1.3,1.1,3,1.9,4.4c1.2,2,1.6,4.3,3.1,6.1
	c0.2,0.2,0.4,0.6,0.3,0.8c-0.3,0.9,0.4,1.4,0.7,2c0.7,1.2,1.5,2.4,1.8,3.8c0.1,0.4,0.5,0.6,0.7,0.9c1.3,1.3,2.8,2.5,2.9,4.6
	c0,0.1,0.1,0.4,0.2,0.5c1.1,0.8,1.4,1.9,1.7,3.1c0.2,0.8,1.1,1.4,1.6,2.1c0.5,0.6,0.9,1.2,1.2,1.8c0.7,1.1,1.3,2.3,2.2,3.4
	c0.8,1,1.8,2,2.1,3.4c0.2,0.7,0.8,1.3,1,2.1c0.1,0.6,0.4,1.1,0.2,1.9c-0.3,0.8,0.5,1.6,1.2,2c1.5,1,2.2,2.6,3.3,4
	c-0.9,1-2.1,0.6-3.1,0.9c-1.7,0.5-2.6-0.4-3.4-1.7c-1-1.7-2.2-3.3-3.1-5c-0.2-0.4-0.6-0.5-0.9-0.8c-0.3-0.2-0.6-0.4-0.6-0.8
	c-0.1-1.8-2-2.5-2.6-4c-0.9-0.2-0.8-1.2-1.2-1.8c-1-1.5-1.9-3.1-3.2-4.4c-0.8-0.9-1.2-2-1.6-3.1c-0.3-0.8-0.3-1.7-1.3-2
	c-0.2,0-0.3-0.1-0.3-0.3c-0.3-1.7-1.7-2.8-2.5-4.2c-0.5-0.9-0.8-1.9-1.4-2.7c-0.7-1.2-1.2-2.5-2.4-3.5c-1.1-0.9-1.6-2.3-2.3-3.6
	c-2.1-3.8-4.1-7.5-5.8-11.5c-1.6-3.7-3.1-7.4-5.4-10.8c-0.2-0.2-0.3-0.5-0.4-0.8c-0.7-3.1-2.9-5.3-4.3-8c-1.6-3-3.2-6-4.1-9.3
	c-0.1-0.3-0.1-0.7-0.3-1c-1.9-2.4-2.4-5.3-2.9-8.2c-0.6-3-1.2-6-1.9-9c-1-4.4-2-8.8-2.2-13.4c-0.1-2.2-0.7-4.4-0.7-6.6
	c-0.1-3.6-0.8-7.2-1.5-10.7c-0.3-1.8-0.1-3.6-0.5-5.4c-0.4-1.7-0.9-3.4-1.7-5c-0.7-1.4-1-3.1-0.7-4.6c0.4-2.3,0.3-4.5,0.4-6.8
	c0-1.8,0.8-3.1,1.6-4.5c0.1-0.2,0.3-0.4,0.3-0.7c0.1-3.9,0.8-7.7,1.1-11.5c0.2-2.5,0.1-5,0.3-7.5c0.2-2.7,0.4-5.4,0.5-8.2
	c0-2.1,0.7-3.8,1.8-5.5c0.2-0.3,0.2-0.6,0.2-1c0.3-2.7,0.7-5.4,1.5-8c0.5-1.8,0.6-3.7,1.2-5.5c1-3.3,1.2-6.8,2.3-10.1
	c0.5-1.4,0.9-2.8,1-4.3c0.2-2.2,1.2-4.1,1.6-6.3c0.7-3.4,2.1-6.6,3.5-9.8c0.9-2,1.5-4,2.1-6.1c0.6-2.4,1.7-4.6,2.7-6.8
	c0.6-1.2,1.2-2.3,1.5-3.6c0.5-1.9,1.4-3.6,2.2-5.4c0.7-1.5,1.2-3.1,1.7-4.6c0.6-2,1.5-3.8,2.6-5.5c0.5-0.8,0.9-1.6,1.3-2.4
	c2.8-5.7,6.6-10.7,10.6-15.6c1.4-1.7,2.6-3.6,4-5.3c2.2-2.8,4.1-5.7,6-8.7c0.3-0.5,0.8-0.8,1.2-1.2c1.5-1.8,2.9-3.5,4.1-5.5
	c0.7-1.1,1.5-2.1,2.4-3c2.2-2.2,4-4.8,6.1-7.1c1.9-2.1,3.8-4.2,5.7-6.3c1.2-1.4,2.2-2.9,3.6-4.1c1.8-1.5,3.4-3.1,5.3-4.4
	c1-0.7,1.9-1.6,2.9-2.3c4.1-2.9,7.5-6.8,11.5-9.9c2.8-2.1,5.2-4.6,8.1-6.5c2.9-1.9,5.5-4.4,8.5-6.3c2.7-1.7,5.3-3.4,8.2-5
	c0.9-0.5,1.8-1,2.5-1.7c2.1-1.9,4.7-3,7.1-4.3c3.9-2,7.9-4,12-5.7c2.8-1.2,5.5-2.4,8.3-3.6c2.2-0.9,4.3-2,6.4-3.1
	c5.6-2.9,11.4-5.2,17.2-7.3c4-1.5,8.1-2.5,12.1-4.1c1.8-0.7,3.8-0.8,5.6-1.4c2.4-0.8,4.9-1.4,7.4-2.1c3.7-1,7.4-2.4,11.1-3.2
	c4.4-1,8.7-2.2,13-3.3c2.5-0.6,5.1-1.3,7.7-1.4c0.8,0,1.4-0.5,2.1-0.7c1.8-0.4,3.7-0.8,5.5-1.2c0.9-0.2,1.9-0.3,2.8-0.6
	c3-1,6.1-1.2,9.2-1.8c3.4-0.6,6.8-0.6,10.2-1c3.1-0.4,6.2-1.3,9.3-2c2.8-0.6,5.5-1.6,8.4-2c1.6-0.2,3.2-0.1,4.8-0.1
	c2.2,0,4.3-0.3,6.5-0.4c3.6-0.2,7.1-0.7,10.6-1.3c2-0.3,4.1-0.8,6.1-1.3c4.6-1.1,9.3-1.5,14-1.4c1.7,0.1,3.4,0.3,5.1-0.3
	c0.5-0.2,1,0.1,1.3,0.5c1,1.1,1.8,2.3,2.3,3.8c0.1,0.2,0.1,0.5,0.2,0.6c1.7,2.4,2,5.2,2.7,7.9c0.2,1,0.8,2,1.2,3
	c0.9,1.9,0.7,3.9,1,5.8c0.3,2.6,1.3,4.9,2,7.4c0.5,2,1.1,3.9,2.1,5.7c0.2,0.3,0.4,0.7,0.3,1.1c-0.3,1,0.4,1.5,1,2
	c1.3,1,2.6,1.7,4.1,2.3c1.5,0.5,3.1,1.2,4.5,1.9c3.1,1.6,6.1,3.3,9.3,4.6c1.9,0.8,3.8,1.5,5.5,2.6c1.3,0.9,2.5,2,4,2.6
	c0.7,0.3,0.8,1.2,1.4,1.7c0.9,0.7,1.3,1.8,2.1,2.6c0.2,0.2,0.2,0.5,0,0.8c-0.2,0.2-0.4,0.1-0.6,0.1c-0.1,0-0.2-0.1-0.3-0.1
	c-1.2-0.1-1.3-0.1-1.3,1.1c0,0.3,0.1,0.7-0.2,0.7c-1.8,0-2.7,1.5-4.1,2.2c-1.8,1-3.1,2.6-5.1,3.4c-1.1,0.4-2.1,1.3-2.9,2.3
	c-1.3,1.6-3,2.3-4.6,3.4c-1,0.7-1.9,1.3-2.3,2.6c-0.9,2.7-2.1,5.3-2.7,8.1c-0.1,0.4-0.5,0.8-0.6,1.2c-1,3.4-2.4,6.6-2.6,10.2
	c0,0.5-0.1,1.1-0.3,1.5c-1.3,2.3-1.2,5.1-2.4,7.4c-1,2-1.4,4.3-2.6,6.3c-0.3,0.4-0.5,0.9-0.9,1.2c-0.3,0.2-0.4,0.5-0.4,0.9
	c0,1.7-1.3,2.7-2.2,3.9c-0.3,0.4-0.7,0.3-1,0c-1.7-1.4-3.7-2.5-4.7-4.6c-1.2-2.6-3.5-4.7-4.5-7.4c0-0.1,0-0.1-0.1-0.2
	c-2.8-2.7-3.6-6.5-6-9.4c-0.5-0.7-1.1-1.3-1.7-1.9c-0.6-0.7-1.6-0.6-2.4-0.4c-1.2,0.4-2.5,0.8-3.7,1.3c-0.9,0.4-1.8,0.7-2.7,0.9
	c-1.7,0.4-3.3,1.2-4.8,2.2c-2,1.3-4.1,2.3-6.2,3.6c-1.6,1-3.5,1.6-5.1,2.6c-1.9,1.2-4,1.8-6.3,1.9c-3.2,0.2-6.4,0.3-9.5,0
	c-4.6-0.4-9.3-0.3-13.9-1c-2-0.3-4,0-5.9-0.1c-1.9,0-3.8,0.4-5.8-0.1c-0.3-0.1-0.6,0.1-0.8,0.1c-2.1,0.5-4.1,0.4-6.1-0.2
	c-0.6-0.2-1.1-0.1-1.7-0.1c-1.7,0.2-3.4,0.1-5.1-0.5c-0.6-0.2-1.1-0.3-1.7-0.2c-1,0.2-1.9,0.1-2.9,0.1c-4.2,0.3-8.4,0-12.6,0.2
	c-1.1,0.1-2.1,0.4-3.2,0.7c-0.7,0.2-1.4,0.2-2,0.1c-0.8-0.1-1.6-0.3-2.2,0.4c-0.2,0.2-0.4,0-0.6,0c-3.1-0.1-6.2-0.2-9.1,0.8
	c-2.9,0.9-5.8,1.3-8.9,1.4c-3.2,0.1-6.3,0.9-9.4,1.7c-1,0.3-2,0.7-3,1.3c-0.9,0.6-2,0.9-3.1,0.9c-2.1-0.1-4,0.5-5.9,1.2
	c-1.8,0.6-3.5,1.3-5.4,1.4c-0.9,0.1-1.7,0.7-2.6,1c-2.5,0.8-5,1.4-7.6,1.7c-1.8,0.2-3.4,1.2-5.2,1.5c-0.7,0.1-1.4,0.3-2.2,0.5
	c-1.1,0.2-2.1,0.6-2.8,1.5c-0.6,0.8-1.5,1.3-2.4,1.6c-1.2,0.4-2.3,0.9-3.5,1.3c-1.2,0.4-2.2,1.3-3.5,1.6c-0.4,0.1-0.8,0.3-1,0.6
	c-2.1,1.9-4.9,2.2-7.5,3.1c-2,0.7-4,1.2-5.9,2.2c-0.6,0.4-1.4,0.6-2.1,0.8c-0.7,0.2-1.3,0.1-1.6,1c-0.1,0.4-0.6,0.3-0.9,0.4
	c-1.4,0.5-2.7,1-3.8,2.1c-1,0.9-2.3,1.5-3.5,2.1c-2.2,1.2-4,3-6.1,4.4c-0.3,0.2-0.5,0.4-0.8,0.6c-1.3,0.6-2.4,1.6-3.5,2.7
	c-0.8,0.8-1.7,1.5-2.7,2c-0.9,0.4-1.8,1-2.5,1.7c-0.8,0.7-1.6,1.3-2.5,1.8c-0.8,0.4-1.6,0.9-2,1.8c-0.1,0.3-0.4,0.5-0.7,0.7
	c-1.4,0.7-2.4,2-3.7,2.8c-0.3,0.2-0.5,0.4-0.4,0.8c0.2,0.6-0.3,0.7-0.8,0.9C83.1,153.8,83.1,154,84,155.2L84,155.2z M12,272.4
	c-0.1,2.4,0.2,5.6,0.4,8.8c0,0.6-0.1,1.4,0.4,1.8c0.7,0.6,0.6,1.3,0.6,2c0,1.3,0,2.6,0.1,3.9c0,0.6,0.3,1.2,1,1.1
	c0.7,0,1.2-0.4,1.2-1.2c0-0.3,0-0.7,0-1c-0.1-7.6,0-15.1,0.4-22.7c0.1-1.5,0.2-3,0.4-4.4c1-7.3,2.1-14.6,3.7-21.9
	c1.2-5.6,2.4-11.1,3.8-16.6c1.2-4.6,2.7-9.2,4.1-13.7c1.1-3.4,2-6.8,3.4-10c3.6-8.2,8-16,12.7-23.6c10.5-17.1,23.7-31.8,38.4-45.4
	c0.4-0.4,1-0.7,1.3-1.3c0.7-1.3,1.8-2.1,3.1-2.9c1.4-0.9,2.9-1.8,4.3-2.8c1.8-1.4,3.6-2.9,5.3-4.3c0.9-0.7,2-1.3,2.8-2.3
	c1.1-1.4,2.5-2.4,4.3-2.9c0.7-0.2,1.4-0.6,2-1c6.6-4.2,13.6-7.7,20.5-11.2c17.9-9.2,36.1-17.6,55-24.4c7.1-2.6,14.3-4.9,21.6-6.8
	c9.3-2.4,18.8-4.3,28.3-5.3c1.7-0.2,3.3-0.8,5-1c2.6-0.3,5.1-0.5,7.6-0.8c6.9-0.6,13.9-0.8,20.8-0.9c2,0,4-0.2,6,0.2
	c1.6,0.4,3.3,0.3,4.9,0.4c1.3,0.1,2-0.8,1.8-2.1c-0.1-0.8-0.5-1.5-0.9-2.2c-2.5-3.6-4.9-7.3-7.4-10.9c-0.5-0.8-1.1-1.5-1.6-2.2
	c-0.8-1-1.8-1.6-3.1-1.5c-1.9,0.1-3.8,0.2-5.6,0.4c-7.4,0.6-14.7,1.3-22.1,1.9c-4.3,0.4-8.6,0.9-12.9,1.2c-2.2,0.2-4.3,1-6.6,1.1
	c-4.1,0.2-8.1,1.2-12,2.5c-1.1,0.4-2.3,0.7-3.5,0.9c-4.5,0.8-8.8,2.2-13.1,3.7c-3.2,1.1-6.2,2.9-9.4,4c-2,0.7-4,1.3-6,2
	c-5.4,1.9-10.6,4-15.8,6.4c-2.2,1-4.3,2-6.5,3c-2.7,1.3-5.4,2.5-8,3.9c-1.6,0.9-3.2,1.9-4.9,2.7c-12.4,5.5-24,12.5-35,20.6
	c-9.7,7.1-18.7,14.9-27.5,23c-3.9,3.7-7.4,7.8-9.4,12.8c-0.2,0.6-0.6,0.9-1,1.3c-3.5,3.4-6.8,6.9-10.1,10.5
	c-1.1,1.3-2.2,2.6-3.3,3.9c-0.6,0.7-0.6,1.7-1.2,2.4c-2,2.3-3.7,4.8-5.4,7.2c-6.2,8.5-10.9,17.8-15.6,27.2c-1.2,2.4-2.1,4.9-3,7.4
	c-2.2,6-4,12.1-5.5,18.3c-0.9,3.8-1.4,7.6-2.3,11.4c-1.8,7.2-3.3,14.4-4.2,21.8c-0.4,3.2-0.6,6.4-1,9.5
	C12.5,260.1,12,265.8,12,272.4L12,272.4z M270.5,35.2c4.1,0,7.4,0,10.8,0c6,0.1,12,0.2,17.9,0.3c2,0,3.4-1,4.1-2.8
	c0.3-0.7,0.6-1.3,1.1-1.9c3.9-5.6,7.5-11.4,10.8-17.4c1.3-2.2,1-2.7-1.6-2.6c-2.8,0.1-5.6,0.3-8.3,0.9c-2.8,0.6-5.6,0.4-8.5,0.9
	c-6.6,1-13.2,1.6-19.8,2.4c-4.7,0.6-9.5,1.4-14.2,1.9c-3.1,0.3-6.1,1.3-9.2,1.6c-9.3,1.1-18.6,2.5-27.8,4.3
	c-14.9,2.9-29.7,6.4-44.1,11.2c-11.7,4-23.2,8.5-34.2,14c-10,5-19.6,10.7-28.8,17c-0.8,0.5-1.7,1-2.3,1.7c-1.7,2.1-4.4,3-6.2,5
	C101.3,77.7,93,84.1,85,91c-7.9,6.9-15.5,14-21.8,22.4c-2.5,3.2-5.5,6-7.3,9.8c-1.1,2.4-2.8,4.6-4.4,6.7c-1.7,2.1-3.2,4.4-4.9,6.6
	c-1.4,1.8-2.1,4-3.5,5.8c-1.3,1.6-2.5,3.4-2.9,5.4c-0.4,2-1.4,3.6-2.5,5.2c-0.5,0.8-1,1.7-1.4,2.5c-0.5,0.9-0.4,1.2,0.5,1.8
	c0.7,0.4,1.2,0.3,1.7-0.5c0.2-0.2,0.3-0.5,0.5-0.7c3.2-5,6.2-10.1,9.9-14.7c4.7-5.7,9.1-11.7,14.2-17c1.9-2,3.6-4.3,5.4-6.4
	c2-2.3,3.8-4.7,6.1-6.7c5.6-4.8,11.1-9.6,16.8-14.2c0.5-0.4,1.2-0.8,1.4-1.4c0.3-0.8,1-1.3,1.7-1.9c4.1-3.4,8.2-6.7,12.6-9.8
	c7.7-5.5,15.7-10.8,24.1-15.3c0.9-0.5,1.8-0.9,2.4-1.6c0.4-0.5,0.9-0.8,1.5-1.1c4-2.2,8-4.4,12.1-6.4c9.8-4.9,20-8.9,30.5-11.8
	c11.1-3.1,22.4-5.4,33.8-7.5c5.5-1,11-2.1,16.5-2.8c7.4-1,14.9-1.3,22.3-1.6C257.2,35.3,264.2,35,270.5,35.2L270.5,35.2z M360,58.2
	c-1.8-2.1-3.3-4.3-5.8-5.3c-0.5-0.2-0.9-0.5-1.4-0.7c-5.8-2.8-11.4-6-16.8-9.5c-1.3-0.8-2-1.7-2.4-3.2c-2.7-9.3-5.5-18.5-8.3-27.8
	c-0.1-0.4-0.2-0.8-0.4-1.1c-0.1-0.4-0.5-0.6-0.9-0.6c-0.5,0-0.7,0.3-0.8,0.7c-0.2,0.8-0.5,1.6-1.5,1.9c-0.2,0.1-0.4,0.3-0.4,0.5
	c-0.7,2.2-2.3,3.9-3.4,5.9c-1.8,3.5-3.9,6.8-6.2,10c-3.1,4.3-6.2,8.6-9.2,12.9c-0.5,0.8-1.1,1.3-2.2,1.1c-4.1-0.9-8.3-1.2-12.5-1.4
	c-4.6-0.1-9.2,0.3-13.8,0.8c-0.4,0-0.9,0.1-1,0.5c-0.1,0.4,0.3,0.5,0.6,0.8c3,2.4,5.5,5.3,8,8.2c3,3.5,5.9,7.2,9.5,10.2
	c1.2,1,1.4,2,1.2,3.4c-0.4,2.8-0.7,5.5-1,8.3c-0.4,4.1-0.9,8.1-2.8,11.9c-0.5,1-0.5,2.2-1.2,3.2c-0.3,0.4-0.8,0.9-0.3,1.4
	c0.4,0.4,1.1,0.6,1.7,0.5c0.3-0.1,0.6-0.2,0.8-0.4c0.5-0.4,1.1-0.6,1.7-0.8c3.9-1.6,7.8-3.2,11.7-4.8c1.2-0.5,2.5-0.8,3.6-1.6
	c2.3-1.6,5.1-2.2,7.6-3.4c0.4-0.2,0.6-0.1,0.9,0.2c0.2,0.3,0.4,0.7,0.6,1c4.7,7.3,9.7,14.3,15.1,21.1c0.6,0.8,1.2,1.5,2.3,1.8
	c0.1-1.3,1-1.9,1.6-2.8c1.2-1.9,1.4-4.1,2-6.1c0.9-3.4,0.9-7,2.6-10.2c0.1-0.2,0.1-0.4,0.1-0.7c0.5-1.5,0.6-3,0.8-4.5
	c0.5-4.1,2-7.9,3.2-11.8c0.2-0.6,0.5-0.8,1-1.1c1.3-0.7,2.5-1.3,3.8-2C352.1,62.7,356,60.7,360,58.2L360,58.2z"/>
<path d="M270.1,766.7c0.9-1.8,1.6-3.2,2.3-4.6c1.5-3.2,3-6.4,4.5-9.6c1.2-2.5,2.4-5,3.6-7.6c0.4-0.9,0.9-1.2,1.8-1.1
	c2.3,0.1,4.7,0,7,0c1.4,0,1.4,0,1.4,1.5c0,3.9,0,7.9,0,11.8c0,9,0,18,0,27c0,0.3,0,0.7,0,1c0,1.3-0.1,1.4-1.4,1.4
	c-2.6,0-5.2,0-7.9,0c-1.1,0-1.3-0.2-1.3-1.3c0-2,0-4,0-6c0-3.6,0-7.2,0-10.8c-0.6,0-0.6,0.5-0.8,0.8c-2.6,5.7-5.2,11.5-7.9,17.2
	c-0.2,0.4-0.3,0.9-0.7,1.2c-0.6,0.5-1.6,0.2-2-0.6c-1-2.1-1.9-4.1-2.8-6.2c-1.9-4.1-3.7-8.2-5.6-12.3c-0.1-0.2-0.1-0.4-0.6-0.5
	c0,0.6,0,1.1,0,1.7c0,4.8,0,9.7,0,14.5c0,0.5,0,0.9,0,1.4c0,0.5-0.3,0.9-0.9,0.9c-2.9,0-5.8,0-8.7,0c-0.6,0-0.9-0.3-0.9-1
	c0-0.3,0-0.7,0-1c0-12.9,0-25.9,0-38.8c0-0.3,0-0.7,0-1c0-0.7,0.3-0.9,0.9-0.9c2.7,0,5.4,0,8,0c0.8,0,1.1,0.4,1.4,1
	c1.3,2.8,2.6,5.7,4,8.5C265.8,757.7,267.9,762,270.1,766.7L270.1,766.7z"/>
<path d="M243.9,786.3c-0.6,0.4-1,0.3-1.5,0.3c-3.2,0-6.4,0-9.6,0c-1.2,0-2-0.4-2.6-1.4c-2.8-4.2-5.7-8.4-8.5-12.6
	c-0.3-0.5-0.7-1-1.3-1.8c0,0.8-0.1,1.2-0.1,1.7c0,4.1,0,8.2,0,12.3c0,1.8,0,1.8-1.8,1.8c-2.4,0-4.8,0-7.2,0c-1.5,0-1.6-0.1-1.6-1.5
	c0-1.4,0-2.8,0-4.3c0-11.5,0-23,0-34.5c0-0.3,0-0.7,0-1c0-1.4,0-1.4,1.5-1.4c0.9,0,1.7,0,2.6,0c5,0,10,0,15,0c3.4,0,6.4,1.1,9.2,3.1
	c2.4,1.8,3.7,4.2,4.4,6.9c1,4.1,0.4,8-1.8,11.6c-1.5,2.4-3.8,3.7-6.4,4.6c-1.4,0.5-1.4,0.5-0.5,1.8c2.9,4,5.8,8,8.7,12
	C243,784.6,243.6,785.3,243.9,786.3L243.9,786.3z M220.3,757.5c0,1.1,0,2.3,0,3.4c0,1.3,0,1.3,1.3,1.4c1.9,0,3.9-0.1,5.8,0
	c2.7,0.2,4.6-1.3,5.1-4.4c0.4-2.2-1.4-5.5-4.3-5.3c-2.1,0.1-4.3,0-6.5,0c-1.5,0-1.5,0-1.5,1.5C220.3,755.3,220.3,756.4,220.3,757.5
	L220.3,757.5z"/>
<path d="M126.3,765c0-6.4,0-12.8,0-19.1c0-0.5,0-0.9,0-1.4c0-0.4,0.2-0.6,0.6-0.7c0.3,0,0.7,0,1,0c4.7,0,9.4-0.1,14.2,0
	c7.6,0.1,13.7,3.4,18,9.7c2.2,3.1,3.2,6.7,3.4,10.6c0.2,4.7-1,8.9-3.5,12.8c-3.2,4.9-7.9,7.8-13.5,9c-1.8,0.4-3.7,0.5-5.6,0.6
	c-4.3,0.1-8.6,0-13,0c-1.7,0-1.7-0.1-1.7-1.7C126.3,778.2,126.3,771.6,126.3,765L126.3,765z M136.9,765.1c0,3.5,0,7,0,10.6
	c0,1.3,0,1.3,1.3,1.4c1,0,2.1,0.1,3.1,0c2.8-0.2,5.5-0.9,7.7-2.9c3.4-3.1,4.5-7,3.7-11.4c-0.8-4.8-3.6-7.8-8.3-9.1
	c-2-0.5-4.1-0.5-6.1-0.5c-1.3,0-1.3,0-1.4,1.3C136.8,758,136.8,761.5,136.9,765.1L136.9,765.1z"/>
<path d="M169.3,759.4c0-4.7,0-9.3,0-14c0-1.6,0-1.6,1.6-1.6c2.3,0,4.7,0,7,0c1.6,0,1.7,0,1.7,1.7c0,5.6,0,11.2,0,16.8
	c0,3-0.1,5.9,0,8.9c0.1,1.9,0.4,3.9,1.9,5.3c2.1,2,4.6,1.9,7,1.2c2.3-0.6,3.2-2.5,3.6-4.7c0.3-1.5,0.3-2.9,0.3-4.4
	c0-7.5,0-15,0-22.6c0-0.5,0-0.9,0-1.4c0-0.6,0.3-0.8,0.9-0.8c2.9,0,5.7,0,8.6,0c0.6,0,0.9,0.3,0.9,0.9c0,0.3,0,0.6,0,0.8
	c0,9.1,0,18.1,0,27.2c0,4.2-1.6,7.9-4.7,10.8c-2.5,2.2-5.4,3.5-8.7,4c-3.8,0.6-7.6,0.3-11.2-1.2c-4.6-2-7.4-5.5-8.6-10.3
	c-0.3-1.3-0.4-2.6-0.4-3.9C169.3,767.9,169.3,763.7,169.3,759.4L169.3,759.4z"/>
<path d="M409.4,779.9c-1.1,1.5-2.5,2.6-4,3.6c-3.5,2.4-7.4,3.8-11.7,4.2c-4.7,0.5-9.1-0.3-13.2-2.4c-5-2.4-8.5-6.4-10.6-11.5
	c-1.2-3-1.8-6.2-1.7-9.5c0.5-11.5,8.2-19.7,18.5-21.5c6.5-1.1,12.7-0.3,18.3,3.4c1.4,1,2.7,2.1,4,3.2c0.5,0.4,0.6,0.8,0.1,1.3
	c-2,1.8-3.9,3.7-5.8,5.5c-0.6,0.6-1.1,0.6-1.7,0c-2-1.9-4.4-3.1-7-3.6c-3.7-0.7-7.2-0.4-10.5,1.8c-2.6,1.8-4.1,4.4-4.8,7.4
	c-1,4.1-0.2,7.9,2.2,11.3c1.9,2.7,4.6,4.1,7.9,4.6c4.7,0.6,8.7-0.8,12.3-3.8c0.4-0.4,0.8-0.8,1.4-0.2
	C405.1,775.8,407.2,777.8,409.4,779.9L409.4,779.9z"/>
<path d="M326,786.5c0.7-1.5,1.2-2.8,1.8-4c2.4-5,4.8-10.1,7.2-15.1c3.7-7.9,7.4-15.8,11.1-23.6c0.3-0.6,0.4-1.3,1.3-1.4
	c0.8,0,1.4,0.2,1.8,1c0.8,1.8,1.8,3.6,2.6,5.4c2.5,5.2,4.9,10.4,7.4,15.6c3.3,7,6.6,14,10,21c0.1,0.3,0.4,0.6,0.2,1
	c-0.3,0.3-0.6,0.2-1,0.2c-2.9,0-5.7,0-8.5,0c-1.1,0-1.7-0.4-2.1-1.3c-0.3-0.8-0.8-1.5-1.1-2.3c-0.3-0.6-0.7-0.8-1.3-0.8
	c-5,0-10,0-15,0c-0.8,0-1.1,0.3-1.4,1c-0.4,0.8-0.7,1.7-1.1,2.5c-0.3,0.6-0.7,1-1.4,1C332.9,786.6,329.6,786.6,326,786.5L326,786.5z
	 M347.4,764c-1.5,3.2-3,6.4-4.4,9.5c-0.4,0.8-0.2,1,0.7,1c2.5,0,5,0,7.5,0c1.2,0,1.3-0.2,0.8-1.3c-1.2-2.7-2.5-5.4-3.7-8.1
	C348.1,764.9,348,764.4,347.4,764L347.4,764z"/>
<path d="M299,765.1c0-6.4,0-12.8,0-19.1c0-0.4,0-0.8,0-1.2c0-0.7,0.3-0.9,1-0.9c0.2,0,0.5,0,0.7,0c5.6,0,11.2,0,16.8,0
	c6-0.1,11.3,3.9,12.9,9.8c1.9,7.2-1.6,15.3-10.3,17.2c-2.6,0.6-5.3,0.4-8,0.4c-3,0-2.6-0.4-2.7,2.6c0,3.7,0,7.4,0,11.1
	c0,1.7,0,1.7-1.7,1.7c-2.2,0-4.5,0-6.7,0c-2.1,0-1.9,0-1.9-2C299,778.1,299,771.6,299,765.1L299,765.1z M309.3,757.4
	c0,1.2,0,2.4,0,3.6c0,0.7,0.3,1,1,1c2,0,4,0,6,0c0.9,0,1.7-0.4,2.3-1c1.4-1.3,1.9-4.4,1-6.1c-0.6-1.2-1.5-2.1-2.9-2.2
	c-2.2-0.1-4.3,0-6.5,0c-0.6,0-0.9,0.3-0.9,1C309.3,754.9,309.3,756.2,309.3,757.4L309.3,757.4z"/>
<path d="M236.1,460.9c1.1-0.2,2.1-0.2,3-0.5c0.7-0.2,1.3-0.1,1.9,0.2c2.8,1.3,5.1,3.3,7.6,5.2c2.5,1.9,4.8,4,7,6.3
	c1.3,1.3,2.3,3,3.7,4.3c0.7,0.6,1.4,1.3,2.2,1.9c1.4,1.1,2.9,2.1,4.2,3.5c1.6,1.8,4.1,2.4,6.1,3.8c0.7,0.5,1.5,0.9,2.2,1.4
	c0.8,0.6,1.7,1,1.6,2.2c1.7,1.9,2.8,4.1,4,6.2c0.4,0.7,1.1,1.3,1.6,2c0.4,0.5,0.8,1,0.9,1.6c0.6,2.7,1.8,5.2,2.1,8
	c0.1,0.7,0.2,1.5,0.1,2.2c-0.2,3.6,0.6,7.1,1.7,10.5c1.4,4.7,3,9.3,3.9,14.1c0.3,1.8,0.9,3.5,0.9,5.3c0,1.1-0.2,2-1.3,2.5
	c-0.6,0.3-0.9,1.1-1.8,1.2c-1.3,0.2-2.5,0.5-3.5-0.9c-0.3-0.4-0.9-0.5-1.4-0.6c-2.2-0.4-4-1.5-5.3-3.4c-0.3-0.4-0.5-0.8-0.5-1.2
	c0-2.6-0.5-5.2-1-7.8c-0.7-3.8-1.3-7.7-2.6-11.4c-1.7-4.9-3.9-9.6-7.2-13.7c-0.3-0.4-0.6-0.8-0.8-1.3c-0.7-1.5-1.6-3-2.5-4.4
	c-1.3-1.9-2.6-3.7-3.3-5.9c-0.3-0.9-1-1.6-1.8-2.2c-5.3-4.1-9.9-8.8-13.9-14.2c-2-2.6-3.6-5.5-5.3-8.3c-0.2-0.3-0.4-0.6-0.4-0.9
	C238,464.7,237,462.9,236.1,460.9L236.1,460.9z"/>
<path d="M240.9,351.1c6,0.1,11.5-1.5,16.9-3.6c1.7-0.7,3.4-1.3,5-2c0.6-0.3,1.2-0.3,1.8-0.1c0.6,0.2,0.9,0.4,0.9,1
	c-0.1,0.8,0.2,1.6,0.5,2.3c0.3,0.6,0,0.9-0.5,1c-5.6,1.7-10.5,4.8-15.9,6.8c-5.2,1.9-10.4,4-15.7,5.7c-0.5,0.2-0.9,0.1-1.2-0.2
	c-0.4-0.4-0.9-0.8-1.2-1.2c-1.1-1.9-2.1-3.8-3.2-5.6c-0.4-0.7-0.2-1.1,0.5-1.5c1.5-0.6,3-1,4.5-1.6
	C235.7,351.2,238.3,350.8,240.9,351.1L240.9,351.1z"/>
<path d="M425.6,181.2c0.5,0.1,0.7,0.5,0.9,0.9c1,1.9,2,3.7,2.7,5.7c1.3,3.4,2.5,6.7,4.3,9.8c0.4,0.7,0.6,1.5,0.9,2.2
	c0.3,0.6,0,1.2-0.5,1.4c-0.4,0.2-1-0.1-1.3-0.5c-0.2-0.3-0.4-0.7-0.6-1.1c-2.4-5.2-4.8-10.4-7.2-15.6c-0.2-0.4-0.4-0.8-0.5-1.3
	C424.1,182,424.7,181.2,425.6,181.2z"/>
<path d="M402.7,247.9c-0.3,1.4-1,1.9-2.4,2.1c-1.7,0.3-3.2,1.2-4.9,1.9c-0.4,0.1-0.7,0.5-1.1,0.3c-0.6-2.5,0.5-4.1,3-4.4
	C399.1,247.6,400.9,247.6,402.7,247.9L402.7,247.9z"/>
<path d="M461.2,167.8c-0.4-1.6-0.1-3.1-0.7-4.5c-0.1-0.2,0-0.6,0.1-0.8c0.4-2.3,0.3-4.6-0.2-6.9c-0.4-2-1.7-3.7-2.6-5.5
	c-0.3-0.6-0.8-1.1-0.7-1.9c1.6-0.8,2.7,0.3,3.7,1.2c1.6,1.6,2.2,3.6,2.7,5.8c0.6,3.1-0.2,6-1.2,8.8
	C461.9,165.2,461.9,166.6,461.2,167.8L461.2,167.8z"/>
<path d="M494.3,182.8c0.6-1.5,0.9-2.9,1.6-4.1c0.5-0.8,1-1.4,1.7-2c1.3-1.1,2.4-2.5,3.5-3.7c0.4-0.4,0.9-0.9,1.3-1.3
	c0.8,0.5,0.8,1.2,0.5,1.9c-0.3,0.7-0.1,1.5-0.7,2.1c-0.3,0.3-0.5,0.6-0.8,0.9c-1.6,1.4-2.9,3-4.2,4.7
	C496.7,182.3,495.8,182.6,494.3,182.8L494.3,182.8z"/>
<path d="M522.8,262.8c-0.7,0.8-1.4,1.1-2.4,0.8c-2.4-0.7-4.9-1.4-7.4-2.1c-1.7-0.5-3.1-1.4-4.2-2.7c-0.5-0.6-1-1.3-1.1-2.1
	c-0.1-0.5-0.3-1.1,0.3-1.4c0.6-0.2,1.2-0.6,1.9,0.1c1.4,1.4,3.2,2,5.1,2.7c2.2,0.8,4.4,1.4,6.3,3
	C521.9,261.6,522.5,262.1,522.8,262.8L522.8,262.8z"/>
<path d="M514.5,211.5c0.1-1.1,0.6-1.9,1.6-2.4c2.2-1.3,4-3,5.7-4.8c0.6-0.7,1.3-1.3,2.2-1.5c0.4-0.1,1.1-0.3,1.2,0.2
	c0.2,0.5,0.4,1.1-0.2,1.6c-2.6,1.9-4.4,4.7-7.4,6.2C516.7,211.2,515.8,211.6,514.5,211.5L514.5,211.5z"/>
<path d="M293.2,381.5c0,1.6-0.1,3.2,0.8,4.6c0.3,0.5,0,0.8-0.3,1.2c-2.6,3.5-5.3,6.9-8.5,10c-0.7,0.7-1.5,1.4-1.6,2.5
	c0,0.2-0.2,0.4-0.3,0.6c-2.4,1.9-4.3,4.4-6.9,6c-0.6,0.4-1.2,0.8-2.2,1.1c0.3-1.1,0.9-1.8,1.3-2.6c3-5,6.2-9.9,9.7-14.6
	C287.5,387.1,290.1,384,293.2,381.5L293.2,381.5L293.2,381.5z"/>
<path d="M293.2,381.5c0,0,0.1-0.1,0.1-0.1c0,0,0,0.1,0,0.1C293.3,381.5,293.2,381.5,293.2,381.5L293.2,381.5L293.2,381.5z"/>
<path d="M28.9,194.3c-0.1-0.7-0.1-1.2,0.3-1.5c0,0,0.2,0,0.3,0.1C29.8,193.5,29.3,193.8,28.9,194.3L28.9,194.3z"/>
</svg>
