<?xml version="1.0" encoding="UTF-8" standalone="no"?>
<!-- Created with Inkscape (http://www.inkscape.org/) -->

<svg
   width="1in"
   height="1in"
   viewBox="0 0 25.4 25.4"
   version="1.1"
   id="svg8495"
   xml:space="preserve"
   inkscape:version="1.2.2 (b0a84865, 2022-12-01)"
   sodipodi:docname="jett-sig.svg"
   xmlns:inkscape="http://www.inkscape.org/namespaces/inkscape"
   xmlns:sodipodi="http://sodipodi.sourceforge.net/DTD/sodipodi-0.dtd"
   xmlns="http://www.w3.org/2000/svg"
   xmlns:svg="http://www.w3.org/2000/svg"><sodipodi:namedview
     id="namedview8497"
     pagecolor="#ffffff"
     bordercolor="#999999"
     borderopacity="1"
     inkscape:showpageshadow="0"
     inkscape:pageopacity="0"
     inkscape:pagecheckerboard="0"
     inkscape:deskcolor="#d1d1d1"
     inkscape:document-units="in"
     showgrid="false"
     inkscape:zoom="5.5989494"
     inkscape:cx="49.56287"
     inkscape:cy="43.133092"
     inkscape:window-width="1728"
     inkscape:window-height="941"
     inkscape:window-x="0"
     inkscape:window-y="38"
     inkscape:window-maximized="1"
     inkscape:current-layer="layer3" /><defs
     id="defs8492"><clipPath
       clipPathUnits="userSpaceOnUse"
       id="clipPath27663"><rect
         style="font-variation-settings:'wght' 500;fill:none;stroke:#000000;stroke-width:0.4;stroke-linecap:round;stroke-linejoin:round;stroke-miterlimit:3.2;stroke-dasharray:none;stroke-opacity:1"
         id="rect27665"
         width="1.5105675"
         height="1.2947721"
         x="13.965043"
         y="12.793583" /></clipPath></defs><g
     inkscape:groupmode="layer"
     id="layer3"
     inkscape:label="1"
     style="fill:none;stroke:#000000;stroke-width:0.3;stroke-dasharray:none;stroke-opacity:1"><path
       style="font-variation-settings:'wght' 500;display:inline;fill:none;stroke:#000000;stroke-width:0.724574;stroke-linecap:round;stroke-dasharray:none;stroke-opacity:1"
       d="m 12.999076,23.443769 1.027871,-14.30059 7.033741,-0.00865 c 2.259181,0.2498114 2.994001,1.852191 3.245149,3.52792 0.310939,1.6518 -0.319571,3.587953 -1.881931,4.386541 -1.191137,0.648213 -2.572359,0.424978 -3.870075,0.463006 -0.675257,-0.0012 -1.350512,-0.0023 -2.025771,-0.0036 l 0.10825,-1.748397 c 1.441055,-0.01052 2.883943,0.02118 4.323819,-0.01631 1.091074,-0.134172 1.620767,-1.34432 1.551434,-2.333836 -0.0078,-0.968745 -0.618064,-2.082796 -1.680181,-2.150129 -1.589679,-0.0154 -3.180059,-0.0058 -4.77001,-0.01138 l -0.831157,12.183001 -2.23114,0.0125 z"
       id="p"
       sodipodi:nodetypes="ccccccccccccccc" /><path
       style="font-variation-settings:'wght' 500;display:inline;fill:none;stroke:#000000;stroke-width:0.724574;stroke-linecap:round;stroke-linejoin:round;stroke-miterlimit:3.2;stroke-dasharray:none;stroke-opacity:1"
       d="M 10.287681,9.2496714 7.9834407,9.2278261 2.0745743,23.628845 l 2.3042404,0.02184 z"
       id="slash"
       sodipodi:nodetypes="ccccc" /><path
       id="quartercircle"
       style="font-variation-settings:'wght' 500;display:inline;fill:none;stroke:#000000;stroke-width:0.724574;stroke-linecap:round;stroke-linejoin:round;stroke-miterlimit:3.2;stroke-dasharray:none;stroke-opacity:1"
       d="M 15.209835,1.7493132 A 13.115243,13.115243 0 0 0 6.1668033,5.372509 L 7.6508844,6.8565898 A 11.016803,11.016803 0 0 1 15.209835,3.8474196 11.016803,11.016803 0 0 1 22.772104,6.8532651 L 24.252858,5.372509 A 13.115243,13.115243 0 0 0 15.209835,1.7493132 Z" /></g></svg>
